<svg xmlns="http://www.w3.org/2000/svg" width="26.571" height="31" viewBox="0 0 26.571 31">
  <path id="git-repository-private-fill" d="M25.143,11.333H28.1a1.476,1.476,0,0,1,1.476,1.476V30.524A1.476,1.476,0,0,1,28.1,32H4.476A1.476,1.476,0,0,1,3,30.524V12.81a1.476,1.476,0,0,1,1.476-1.476H7.429V9.857a8.857,8.857,0,0,1,17.714,0Zm-2.952,0V9.857a5.9,5.9,0,0,0-11.81,0v1.476ZM8.9,15.762v2.952h2.952V15.762Zm0,4.429v2.952h2.952V20.19Zm0,4.429v2.952h2.952V24.619Z" transform="translate(-3 -1)" fill="#fdfcff"/>
</svg>
