<svg xmlns="http://www.w3.org/2000/svg" xmlns:xlink="http://www.w3.org/1999/xlink" width="469.509" height="366.281" viewBox="0 0 469.509 366.281">
  <defs>
    <clipPath id="clip-path">
      <rect id="Rectángulo_33" data-name="Rectángulo 33" width="88.425" height="231.456" fill="#ede6ff"/>
    </clipPath>
  </defs>
  <g id="Grupo_3403" data-name="Grupo 3403" transform="translate(-234.916 -422.719)">
    <g id="Grupo_3402" data-name="Grupo 3402">
      <path id="Trazado_287" data-name="Trazado 287" d="M59.82,365.78H71.07V330.122H59.82Zm15.555,0H86.621V330.122H75.375Zm15.551,0h11.249V330.122H90.927Zm15.557,0h11.246V330.122H106.483ZM48.574,304.616v16.173L61.02,320.5V303.688ZM68.2,303.152v17.173l14.835-.352v-17.93ZM90.21,301.5v18.3l14.836-.352V300.4Zm22.016-1.647v19.43l17.227-.408V298.567ZM48.574,280.695V297.42l12.446-.93V279.152Zm19.623-2.43v17.686l14.835-1.109v-18.41Zm22.012-2.72v18.761l14.836-1.109V273.71Zm22.016-2.722v19.838l17.227-1.29V270.694ZM48.574,257.092v16.367l12.446-1.536V254.778ZM68.2,253.447v17.586L83.032,269.2V250.685Zm22.012-4.092v18.954l14.836-1.829V246.595Zm22.016-4.1v20.33l17.227-2.123V242.057ZM48.574,232.974v16.818l12.446-2.314v-17.3ZM68.2,228.559v17.586l14.835-2.759V225.226ZM90.21,223.61v18.442l14.836-2.758V220.279Zm22.016-4.952v19.3l17.227-3.2V214.792ZM271.356,365.781H282.6V158.542H271.356Zm15.55,0h11.251V158.542H286.906Zm15.558,0h11.244V158.542H302.465Zm15.548,0h11.253V158.542H318.013Zm10.051-216.864,12.446.294V133.038l-12.446-.93Zm-22.011-.52,14.835.35V131.574l-14.835-1.109Zm-22.016-.522,14.838.352v-18.3l-14.838-1.106Zm-24.407-.573,17.229.41V128.279l-17.229-1.288Zm68.433-22.388,12.446.928V109.116l-12.446-1.543Zm-22.011-1.652,14.835,1.111V106.688l-14.835-1.836Zm-22.016-1.645,14.838,1.111v-18.76l-14.838-1.838Zm-24.407-1.824,17.229,1.29V101.244l-17.229-2.128Zm68.433-19.447,12.446,1.536V85.512L328.064,83.2Zm-22.011-2.72,14.835,1.829V81.87l-14.835-2.763ZM284.038,94.9l14.838,1.831V77.776l-14.838-2.758Zm-24.407-3.017L276.86,94.01V73.679l-17.229-3.2ZM328.064,75.9l12.446,2.316V61.4l-12.446-2.8Zm-22.011-4.089,14.835,2.758V56.981l-14.835-3.333Zm-22.016-4.092,14.838,2.758V52.032L284.038,48.7Zm-24.407-4.539,17.229,3.2v-19.3l-17.229-3.869V63.177ZM223.74,0V56.375h-9.814V4.207L175.16,18.563V227.953h-9.816V171.578L20.273,212.154l-4.717,1.319V352.619H0v12.92H28.477V223.277L152.424,190.62v174.92h10.3v0h73.942V19.04L360.609,51.7V365.541h28.475V352.619H373.529V41.895l-4.719-1.321Z" transform="translate(234.916 422.719)" fill="#ede6ff"/>
      <g id="Grupo_9" data-name="Grupo 9" transform="translate(616 556.424)">
        <g id="Grupo_8" data-name="Grupo 8" clip-path="url(#clip-path)">
          <path id="Trazado_288" data-name="Trazado 288" d="M45.983,228.3q.147-9.061.156-18.123c6.5-.622,11.693-4.455,16.068-9.226,5.3-5.78,10.728-12.211,14.694-18.986,7.22-13.639,10.966-32.056,8.9-47.4-1.174-8.709-6.693-15.5-8.4-24.043-.937-4.69-.368-9.189-.911-13.874a124.851,124.851,0,0,1-.8-14.663c0-9.175-1.056-18.207-1.025-27.4A112.99,112.99,0,0,0,71.6,27.208c-2.048-8.133-3.131-16.32-8.117-23.321-3.728-5.237-6.619-4.271-12.25-2.363A38.224,38.224,0,0,0,33.349,13.8c-2.3,2.681-3.77,5.839-6.029,8.548a41.429,41.429,0,0,0-6.213,9.843c-1.661,3.7-2.989,7.544-4.6,11.269-1.7,3.926-3.991,7.534-5.629,11.484C7.589,62.89,5.555,71.711,3.817,80.119c-3.928,19-4.151,37.807-3.586,57.131A216.148,216.148,0,0,0,2.7,163.977c1.3,8.392,2.377,16.916,5.125,24.989,2.446,7.19,5.722,12.46,12.676,15.88a55.845,55.845,0,0,0,18.039,5.137q-.279,9.156-.506,18.314-15.708-.011-31.419.016-.024,1.527-.07,3.048,13.595-.011,27.193-.009,27.344.013,54.689.1v-3.075q-21.224-.047-42.444-.081m-3.064,0H41.1q.215-9.04.5-18.079c.5.023.985.019,1.475.026q-.021,9.025-.154,18.053M41.69,207.222q.352-11.4.738-22.8a1.385,1.385,0,0,0,.5-.748q.155,11.792.158,23.587-.691-.005-1.393-.04m.813-25.061q.137-4.118.272-8.236.079,4.491.142,8.984a1.751,1.751,0,0,0-.413-.748m20.931-67.876c-.547,4.21-6,9.011-8.886,11.826a39.621,39.621,0,0,1-9.664,6.67c-.536-19.831-1.107-39.66-1.44-59.495a1.745,1.745,0,0,0,.072-.371c.063-.885,3.038-3.171,3.646-3.839q2.181-2.4,4.492-4.681c2.579-2.56,4.8-5,6.107-8.438.7-1.847-2.262-2.644-2.956-.815-1.691,4.459-5.855,7.488-9.012,10.894-.645.7-1.545,1.472-2.423,2.311-.14-9.612-.226-19.223-.208-28.838a1.533,1.533,0,0,0-3.064,0q-.016,8.365.068,16.725a5.146,5.146,0,0,0-.611-.417c-1.316-.743-2.691-1.03-3.909-2a26.2,26.2,0,0,1-5.619-6.7c-1.048-1.666-3.7-.13-2.647,1.547a30.09,30.09,0,0,0,6.1,7.318A12.82,12.82,0,0,0,36.9,58.007a23.438,23.438,0,0,1,3.3,2.141c.151,14.156.454,28.312.813,42.467a46.042,46.042,0,0,1-8.261-4.781,29.641,29.641,0,0,1-6.812-7.816c-1.025-1.684-3.676-.145-2.647,1.545A32.487,32.487,0,0,0,30.586,100c3.117,2.532,6.61,4.023,10.113,5.9a1.641,1.641,0,0,0,.4.149q.047,1.805.093,3.611a1.71,1.71,0,0,0-.037.352c-.135,23.652-.892,47.29-1.68,70.926-1.869-1.452-5.263-4.056-5.531-4.292-2.9-2.537-4.69-6.165-6.474-9.51-.929-1.74-3.574-.194-2.646,1.547,2.314,4.34,4.681,8.567,8.727,11.516,1.812,1.321,3.553,2.745,5.347,4.061a5.325,5.325,0,0,0,.457.3q-.373,11.2-.725,22.4a56.945,56.945,0,0,1-14.866-3.991c-7.656-3.248-11.073-8.6-13.494-16.376-4.485-14.407-6.172-30.508-6.84-45.515-.762-17.182-.981-34.485,1.775-51.488A234.054,234.054,0,0,1,10.445,66.18c1.989-7.392,5.4-13.641,8.46-20.57,3.091-7,5.114-14.549,10.083-20.528,4.455-5.363,7.648-11.33,13.217-15.8,3.155-2.53,6.877-3.807,10.675-5.076a17.307,17.307,0,0,1,3.693-1.216c3.036-.214,4.634,2.784,6.011,5.1,3.968,6.67,5.172,15.3,6.81,22.788a118.524,118.524,0,0,1,2.185,25.681c-.067,7.895,1.046,15.633,1.044,23.508a129.34,129.34,0,0,0,.23,13.033c.214,2.094.729,4.147.818,6.248.1,2.441-.314,4.836-.049,7.28.8,7.323,3.755,13.193,6.8,19.743,3.791,8.159,3.218,19.132,1.894,27.887-1.311,8.667-3.947,18.387-8.061,26.161-3.31,5.654-7.732,10.717-11.928,15.74-4.222,5.053-9.291,10.267-16.18,10.973q0-5.669-.037-11.335c3.693-.979,7.455-4.8,9.718-7.544,2.677-3.243,6.822-7.511,7.551-11.758.331-1.929-2.623-2.758-2.956-.815-.576,3.362-4.08,6.945-6.146,9.6a26.623,26.623,0,0,1-3.891,4.128,20.385,20.385,0,0,1-4.3,3.22c-.161-18.817-.613-37.63-1.116-56.443,5.042-2.642,9.37-5.279,13.349-9.568,3.141-3.385,7.553-7.549,8.175-12.334.254-1.95-2.814-1.931-3.064,0" transform="translate(0.001 0)" fill="#ede6ff"/>
        </g>
      </g>
    </g>
    <rect id="Rectángulo_34" data-name="Rectángulo 34" width="13" height="208" transform="translate(506 581)" fill="#cebcff"/>
    <rect id="Rectángulo_37" data-name="Rectángulo 37" width="13" height="208" transform="translate(537 581)" fill="#cebcff"/>
    <rect id="Rectángulo_35" data-name="Rectángulo 35" width="11" height="208" transform="translate(522 581)" fill="#cebcff"/>
    <rect id="Rectángulo_36" data-name="Rectángulo 36" width="13" height="208" transform="translate(552 581)" fill="#cebcff"/>
    <rect id="Rectángulo_38" data-name="Rectángulo 38" width="12" height="37" transform="translate(310 752)" fill="#cebcff"/>
    <rect id="Rectángulo_41" data-name="Rectángulo 41" width="12" height="37" transform="translate(341 752)" fill="#cebcff"/>
    <rect id="Rectángulo_39" data-name="Rectángulo 39" width="12" height="37" transform="translate(294 752)" fill="#cebcff"/>
    <rect id="Rectángulo_40" data-name="Rectángulo 40" width="12" height="37" transform="translate(325 752)" fill="#cebcff"/>
  </g>
</svg>
