<svg id="Grupo_5" data-name="Grupo 5" xmlns="http://www.w3.org/2000/svg" xmlns:xlink="http://www.w3.org/1999/xlink" width="452" height="452.225" viewBox="0 0 452 452.225">
  <defs>
    <clipPath id="clip-path">
      <rect id="Rectángulo_30" data-name="Rectángulo 30" width="452" height="452.225" fill="none"/>
    </clipPath>
  </defs>
  <path id="Trazado_131" data-name="Trazado 131" d="M0,0H94.715V303.208H0Z" transform="translate(267.314 89.887)" fill="#ede6ff"/>
  <g id="Grupo_6" data-name="Grupo 6">
    <g id="Grupo_5-2" data-name="Grupo 5" clip-path="url(#clip-path)">
      <path id="Trazado_13" data-name="Trazado 13" d="M1174.782,665.832h-94.715a.546.546,0,0,1-.545-.546V362.079a.545.545,0,0,1,.545-.546h94.715a.545.545,0,0,1,.545.546V665.286a.546.546,0,0,1-.545.546m-94.169-1.091h93.624V362.624h-93.624Z" transform="translate(-812.753 -272.192)"/>
      <path id="Trazado_14" data-name="Trazado 14" d="M953.335,666.948H911.1V391l42.238-27.262Z" transform="translate(-685.949 -273.854)" fill="#ede6ff"/>
      <path id="Trazado_15" data-name="Trazado 15" d="M951.674,665.832H909.436a.545.545,0,0,1-.545-.546V389.341a.546.546,0,0,1,.25-.458l42.238-27.262a.546.546,0,0,1,.841.458V665.286a.545.545,0,0,1-.545.546m-41.692-1.091h41.147V363.08l-41.147,26.558Z" transform="translate(-684.288 -272.192)"/>
      <path id="Trazado_16" data-name="Trazado 16" d="M1142.185,705.986h-16.428a.546.546,0,0,1-.545-.546V447.485a.545.545,0,0,1,.545-.545h16.428a.545.545,0,0,1,.545.545V705.441a.546.546,0,0,1-.545.546M1126.3,704.9h15.337V448.031H1126.3Z" transform="translate(-847.151 -336.493)"/>
      <path id="Trazado_17" data-name="Trazado 17" d="M1254.9,705.986h-16.428a.546.546,0,0,1-.546-.546V447.485a.546.546,0,0,1,.546-.545H1254.9a.545.545,0,0,1,.545.545V705.441a.546.546,0,0,1-.545.546m-15.883-1.091h15.337V448.031h-15.337Z" transform="translate(-932.009 -336.493)"/>
      <path id="Trazado_18" data-name="Trazado 18" d="M1367.607,705.986h-16.428a.546.546,0,0,1-.545-.546V447.485a.545.545,0,0,1,.545-.545h16.428a.546.546,0,0,1,.546.545V705.441a.546.546,0,0,1-.546.546m-15.882-1.091h15.337V448.031h-15.337Z" transform="translate(-1016.868 -336.493)"/>
      <rect id="Rectángulo_10" data-name="Rectángulo 10" width="59.206" height="222.252" transform="translate(167.635 0.545)" fill="#ede6ff"/>
      <path id="Trazado_19" data-name="Trazado 19" d="M735.9,223.343H676.7a.546.546,0,0,1-.545-.546V.546A.546.546,0,0,1,676.7,0H735.9a.546.546,0,0,1,.546.546V222.8a.546.546,0,0,1-.546.546m-58.66-1.091h58.115V1.091H677.243Z" transform="translate(-509.063)"/>
      <rect id="Rectángulo_11" data-name="Rectángulo 11" width="35.417" height="15.226" transform="translate(180.075 11.833)" fill="#130052"/>
      <path id="Trazado_20" data-name="Trazado 20" d="M598.1,224.459H571.7V19.248L598.1,2.207Z" transform="translate(-430.422 -1.661)" fill="#ede6ff"/>
      <path id="Trazado_21" data-name="Trazado 21" d="M596.439,223.344h-26.4a.545.545,0,0,1-.546-.545V17.587a.546.546,0,0,1,.25-.458L596.143.087a.546.546,0,0,1,.841.458V222.8a.546.546,0,0,1-.546.545m-25.857-1.091h25.312V1.547L570.582,17.884Z" transform="translate(-428.76 0)"/>
      <rect id="Rectángulo_12" data-name="Rectángulo 12" width="94.715" height="355.549" transform="translate(157.784 37.545)" fill="#ede6ff"/>
      <path id="Trazado_22" data-name="Trazado 22" d="M731.551,506.366H636.836a.546.546,0,0,1-.546-.546V150.271a.546.546,0,0,1,.546-.546h94.715a.546.546,0,0,1,.546.546V505.82a.546.546,0,0,1-.546.546m-94.17-1.091h93.624V150.816H637.381Z" transform="translate(-479.051 -112.725)"/>
      <path id="Trazado_23" data-name="Trazado 23" d="M510.1,507.482H467.867V179.195L510.1,151.933Z" transform="translate(-352.248 -114.387)" fill="#ede6ff"/>
      <path id="Trazado_24" data-name="Trazado 24" d="M508.443,506.367H466.2a.545.545,0,0,1-.545-.546V177.534a.546.546,0,0,1,.25-.458l42.238-27.262a.545.545,0,0,1,.841.458V505.821a.545.545,0,0,1-.545.546m-41.692-1.091H507.9v-354L466.75,177.831Z" transform="translate(-350.586 -112.727)"/>
      <rect id="Rectángulo_13" data-name="Rectángulo 13" width="67.566" height="15.479" transform="translate(170.237 55.474)" fill="#130052"/>
      <rect id="Rectángulo_14" data-name="Rectángulo 14" width="67.566" height="15.479" transform="translate(170.237 87.618)" fill="#130052"/>
      <rect id="Rectángulo_15" data-name="Rectángulo 15" width="67.566" height="15.479" transform="translate(170.237 119.761)" fill="#130052"/>
      <rect id="Rectángulo_16" data-name="Rectángulo 16" width="67.566" height="15.479" transform="translate(170.237 151.904)" fill="#130052"/>
      <rect id="Rectángulo_17" data-name="Rectángulo 17" width="67.566" height="15.479" transform="translate(170.237 184.047)" fill="#130052"/>
      <rect id="Rectángulo_18" data-name="Rectángulo 18" width="67.566" height="15.479" transform="translate(170.237 216.19)" fill="#130052"/>
      <rect id="Rectángulo_19" data-name="Rectángulo 19" width="67.566" height="15.479" transform="translate(170.237 248.333)" fill="#130052"/>
      <rect id="Rectángulo_20" data-name="Rectángulo 20" width="67.566" height="15.479" transform="translate(170.237 280.476)" fill="#130052"/>
      <rect id="Rectángulo_21" data-name="Rectángulo 21" width="67.566" height="15.479" transform="translate(170.237 312.619)" fill="#130052"/>
      <rect id="Rectángulo_22" data-name="Rectángulo 22" width="67.566" height="15.479" transform="translate(170.237 344.762)" fill="#130052"/>
      <rect id="Rectángulo_23" data-name="Rectángulo 23" width="94.715" height="253.531" transform="translate(42.712 139.563)" fill="#ede6ff"/>
      <path id="Trazado_25" data-name="Trazado 25" d="M265.892,817.179H171.178a.546.546,0,0,1-.546-.546V563.1a.546.546,0,0,1,.546-.546h94.715a.546.546,0,0,1,.546.546V816.633a.546.546,0,0,1-.546.546m-94.169-1.091h93.624V563.647H171.723Z" transform="translate(-128.466 -423.538)"/>
      <path id="Trazado_26" data-name="Trazado 26" d="M44.446,818.3H2.208V592.027l42.238-27.262Z" transform="translate(-1.663 -425.201)" fill="#ede6ff"/>
      <path id="Trazado_27" data-name="Trazado 27" d="M42.783,817.179H.546A.545.545,0,0,1,0,816.633V590.364a.546.546,0,0,1,.25-.458l42.238-27.262a.546.546,0,0,1,.841.458V816.633a.545.545,0,0,1-.545.546M1.091,816.088H42.238V564.1L1.091,590.662Z" transform="translate(0 -423.539)"/>
      <rect id="Rectángulo_24" data-name="Rectángulo 24" width="16.428" height="32.856" transform="translate(54.002 160.669)" fill="#fff"/>
      <path id="Trazado_28" data-name="Trazado 28" d="M346,681.911H329.577a.546.546,0,0,1-.546-.546V648.51a.546.546,0,0,1,.546-.546H346a.546.546,0,0,1,.545.546v32.856a.545.545,0,0,1-.545.546m-15.883-1.091h15.337V649.055H330.122Z" transform="translate(-247.722 -487.841)"/>
      <path id="Trazado_29" data-name="Trazado 29" d="M458.716,681.911H442.287a.545.545,0,0,1-.545-.546V648.51a.546.546,0,0,1,.545-.546h16.428a.546.546,0,0,1,.546.546v32.856a.546.546,0,0,1-.546.546m-15.883-1.091H458.17V649.055H442.833Z" transform="translate(-332.58 -487.841)"/>
      <rect id="Rectángulo_25" data-name="Rectángulo 25" width="16.428" height="32.856" transform="translate(54.002 214.814)" fill="#fff"/>
      <rect id="Rectángulo_26" data-name="Rectángulo 26" width="16.428" height="32.856" transform="translate(81.855 214.814)" fill="#fff"/>
      <path id="Trazado_30" data-name="Trazado 30" d="M458.716,901.016H442.287a.546.546,0,0,1-.545-.546V867.614a.545.545,0,0,1,.545-.545h16.428a.546.546,0,0,1,.546.545v32.856a.546.546,0,0,1-.546.546m-15.883-1.091H458.17V868.16H442.833Z" transform="translate(-332.58 -652.801)"/>
      <rect id="Rectángulo_27" data-name="Rectángulo 27" width="16.428" height="32.856" transform="translate(54.002 268.958)" fill="#fff"/>
      <rect id="Rectángulo_28" data-name="Rectángulo 28" width="16.428" height="32.856" transform="translate(81.855 268.958)" fill="#fff"/>
      <path id="Trazado_31" data-name="Trazado 31" d="M458.716,1120.122H442.287a.546.546,0,0,1-.545-.546v-32.857a.545.545,0,0,1,.545-.545h16.428a.546.546,0,0,1,.546.545v32.857a.546.546,0,0,1-.546.546m-15.883-1.091H458.17v-31.766H442.833Z" transform="translate(-332.58 -817.761)"/>
      <path id="Trazado_32" data-name="Trazado 32" d="M233.295,1339.227H216.866a.546.546,0,0,1-.545-.546v-32.856a.545.545,0,0,1,.545-.545h16.428a.546.546,0,0,1,.546.545v32.856a.546.546,0,0,1-.546.546m-15.883-1.091h15.337v-31.765H217.412Z" transform="translate(-162.864 -982.722)"/>
      <rect id="Rectángulo_29" data-name="Rectángulo 29" width="16.428" height="32.856" transform="translate(81.855 323.103)" fill="#fff"/>
      <path id="Trazado_33" data-name="Trazado 33" d="M458.716,1339.227H442.287a.546.546,0,0,1-.545-.546v-32.856a.545.545,0,0,1,.545-.545h16.428a.546.546,0,0,1,.546.545v32.856a.546.546,0,0,1-.546.546m-15.883-1.091H458.17v-31.765H442.833Z" transform="translate(-332.58 -982.722)"/>
      <path id="Trazado_34" data-name="Trazado 34" d="M1324.3,555.4c-2.731-.15-5.943.578-12.368,2.033-5.789,1.311-7.391,2.193-8.1,3.709-1.167,2.481.576,5.539,1.1,6.455,2.959,5.19,8.377,5.87,11.95,8.241,11.556,7.671,5.664,20.7,15.246,28.844,9.128,7.76,17.654-1.357,34.063,6.044,12.919,5.826,11.716,13.318,22.251,16.62,12.867,4.033,33.029-1.388,41.205-17.581,7.775-15.4,2.4-35.955-8.1-41.206-9.542-4.77-16.915,5.769-29.668.824-12.573-4.875-13.543-18.371-23.354-18.2-2.346.041-1.855.8-17.3,6.39-7.155,2.587-8.014,2.7-8.791,2.747-7.7.511-9.3-4.434-18.125-4.917" transform="translate(-981.331 -414.973)" fill="#130052"/>
      <path id="Trazado_35" data-name="Trazado 35" d="M1246.5,765.325c-5.5,33.661-6.135,34.156-6.877,37.682a148.447,148.447,0,0,0-2.785,19.461c-.525,8.286,1.033,58.048,26.755,69.006,9.288,3.957,11.98-3.317,31.758-2.527,20.268.809,24.377,8.021,33.22,5.494,19.138-5.469,25.389-46.532,24.335-71.907-.859-20.666-11.143-40.181-31.714-79.21-3.133-5.944-8.671-17.034-16.75-18.19-3.7-.53-6.178.473-21.047,4.555-16.174,4.44-18.764,1.294-25.706,5.669-7.173,4.52-8.438,13.121-11.188,29.966" transform="translate(-931.14 -545.843)" fill="#fff"/>
      <path id="Trazado_36" data-name="Trazado 36" d="M1323.219,893.855c-2.768,0-5.322-.87-8.486-1.948a66.549,66.549,0,0,0-21.073-4.083,55.19,55.19,0,0,0-19.55,2.4c-4.381,1.247-7.546,2.147-12.4.079-10.91-4.648-19.049-17.055-23.536-35.88-3.391-14.226-3.855-28.822-3.549-33.662a150.292,150.292,0,0,1,2.8-19.544c.124-.59.246-1.1.389-1.693.714-2.971,1.908-7.944,6.483-35.96l.171-1.047c2.686-16.47,4.034-24.736,11.265-29.293,3.774-2.378,6.342-2.6,10.229-2.944a78.83,78.83,0,0,0,15.624-2.789c2.483-.682,4.62-1.277,6.475-1.795,9.369-2.611,11.6-3.232,14.793-2.774,8.057,1.153,13.529,11.572,16.8,17.8l.357.678c20.582,39.05,30.912,58.651,31.776,79.441a152.312,152.312,0,0,1-4.614,43.584c-3.1,11.433-9.1,25.722-20.116,28.87a13.776,13.776,0,0,1-3.833.557m-32.464-7.181c.941,0,1.922.019,2.949.06a68.363,68.363,0,0,1,21.381,4.14c4.526,1.542,7.516,2.56,11.667,1.375,18.339-5.24,25.04-44.884,23.941-71.36-.854-20.545-11.146-40.073-31.651-78.978l-.357-.68c-3.172-6.04-8.483-16.15-15.987-17.224-2.973-.424-5.156.184-14.346,2.745-1.856.517-3.995,1.113-6.48,1.8a79.818,79.818,0,0,1-15.818,2.824c-3.861.339-6.192.543-9.742,2.78-6.815,4.294-8.136,12.4-10.77,28.546l-.171,1.047c-4.581,28.056-5.781,33.053-6.5,36.039-.14.584-.26,1.084-.383,1.668a149.112,149.112,0,0,0-2.774,19.384c-.3,4.787.159,19.234,3.521,33.34,3.071,12.883,9.537,29.435,22.9,35.129,4.5,1.916,7.353,1.1,11.673-.125a55.939,55.939,0,0,1,16.944-2.505m-45.923-123.017h0Z" transform="translate(-929.469 -544.175)"/>
      <path id="Trazado_37" data-name="Trazado 37" d="M1395.634,1676.87v16.278l7.832-.477,1.542-15.8Z" transform="translate(-1050.748 -1262.486)" fill="#fff"/>
      <path id="Trazado_38" data-name="Trazado 38" d="M1393.972,1692.031a.545.545,0,0,1-.545-.546v-16.278a.545.545,0,0,1,.545-.545h9.374a.545.545,0,0,1,.543.6l-1.542,15.8a.545.545,0,0,1-.51.492l-7.832.477h-.033m.546-16.278v15.153l6.789-.413,1.438-14.739Z" transform="translate(-1049.087 -1260.823)"/>
      <path id="Trazado_39" data-name="Trazado 39" d="M1379.292,1745.006a53.242,53.242,0,0,1-14.491-.484,3.407,3.407,0,0,1-2.709-4.277c1.526-5.425,4.538-15.535,6.938-20.378l1.445,2.641,1.39-2.675c.2-.33.553-1.113,1.346-1.036l2.349.061c.627-.058,1.127.511,1.488,1.179l1.423,2.656,1.7-3.12,2.137,21.717a3.4,3.4,0,0,1-3.012,3.717" transform="translate(-1025.399 -1294.047)" fill="#fff"/>
      <path id="Trazado_40" data-name="Trazado 40" d="M1372.191,1744.172a53.955,53.955,0,0,1-9.139-.777,3.951,3.951,0,0,1-3.141-4.962c1.251-4.448,4.435-15.349,6.974-20.473a.547.547,0,0,1,.478-.3.539.539,0,0,1,.49.284l.954,1.743.991-1.895a1.909,1.909,0,0,1,1.809-1.2l2.281.058c.535-.038,1.3.2,1.983,1.466l.946,1.766,1.214-2.232a.545.545,0,0,1,1.022.207l2.137,21.717a3.956,3.956,0,0,1-3.5,4.313,51.853,51.853,0,0,1-5.5.288m5.444-.83h0Zm-10.226-23.938c-2.415,5.348-5.28,15.168-6.448,19.324a2.818,2.818,0,0,0,.334,2.295,2.877,2.877,0,0,0,1.943,1.3,52.571,52.571,0,0,0,14.34.48,2.861,2.861,0,0,0,2.527-3.122l-1.963-19.95-.849,1.56a.522.522,0,0,1-.481.285.545.545,0,0,1-.479-.288l-1.423-2.656c-.151-.28-.545-.93-.957-.893a.394.394,0,0,1-.064,0l-2.349-.061c-.348-.031-.54.2-.8.652l-.069.119-1.373,2.646a.546.546,0,0,1-.963.01Z" transform="translate(-1023.742 -1292.382)"/>
      <path id="Trazado_41" data-name="Trazado 41" d="M1377.089,1807.255a30.059,30.059,0,0,1-7.588-.913.546.546,0,1,1,.277-1.055c7.375,1.939,15.24.018,15.318,0a.545.545,0,0,1,.265,1.058,37.214,37.214,0,0,1-8.273.912" transform="translate(-1030.767 -1359.154)"/>
      <path id="Trazado_42" data-name="Trazado 42" d="M1396.042,1775.767h-7.147a.546.546,0,1,1,0-1.091h7.147a.546.546,0,1,1,0,1.091" transform="translate(-1045.263 -1336.122)"/>
      <path id="Trazado_43" data-name="Trazado 43" d="M1628.772,1642.018l2.315,19.626,7.341-.255v-19.37Z" transform="translate(-1226.274 -1236.246)" fill="#fff"/>
      <path id="Trazado_44" data-name="Trazado 44" d="M1629.425,1660.528a.545.545,0,0,1-.541-.482l-2.315-19.626a.545.545,0,0,1,.542-.609h9.656a.546.546,0,0,1,.546.545v19.371a.546.546,0,0,1-.527.545l-7.341.255h-.019m-1.7-19.625,2.184,18.517,6.313-.219v-18.3Z" transform="translate(-1224.612 -1234.585)"/>
      <path id="Trazado_45" data-name="Trazado 45" d="M1628.916,1701.613s-.944,8.716-.653,12.222c.209,2.509,3.651,10.086,5.593,14.193a4.736,4.736,0,0,0,4.01,2.846c2.059.089,4.924.193,7.234.195,3.178,0,5.364-3.609,4.229-6.977a52.329,52.329,0,0,0-5.325-11.153c-1.97-3.124-4.846-11.612-4.846-11.612h-5.982l-1.174,4.967Z" transform="translate(-1225.849 -1280.899)" fill="#fff"/>
      <path id="Trazado_46" data-name="Trazado 46" d="M1643.441,1729.952h-.005c-2.342,0-5.239-.108-7.257-.2a5.3,5.3,0,0,1-4.479-3.158c-2.015-4.264-5.428-11.8-5.643-14.381-.292-3.517.615-11.968.654-12.326a.545.545,0,0,1,1-.241l2.39,3.626.883-3.737a.546.546,0,0,1,.531-.42h5.982a.546.546,0,0,1,.517.37c.028.084,2.878,8.463,4.79,11.5a52.746,52.746,0,0,1,5.381,11.27,6.2,6.2,0,0,1-.8,5.588,4.853,4.853,0,0,1-3.944,2.109m-15.8-28.419a81.93,81.93,0,0,0-.5,10.594c.146,1.759,2.167,6.864,5.543,14.005a4.213,4.213,0,0,0,3.54,2.534c2.007.087,4.888.192,7.211.194h0a3.776,3.776,0,0,0,3.058-1.655,5.1,5.1,0,0,0,.649-4.6,51.67,51.67,0,0,0-5.27-11.036c-1.768-2.8-4.189-9.665-4.774-11.358h-5.161l-1.075,4.547a.545.545,0,0,1-.986.175Z" transform="translate(-1224.186 -1279.237)"/>
      <path id="Trazado_47" data-name="Trazado 47" d="M1651.355,1774.506c-3.012,0-4.432-2.086-5.333-3.9-1.4-2.818-3.361-6.5-3.38-6.541a.545.545,0,1,1,.963-.513c.02.037,1.991,3.738,3.4,6.57,1.145,2.311,2.448,3.3,4.356,3.3h.006l5.143-.005h0a.546.546,0,0,1,0,1.091l-5.143.005Z" transform="translate(-1236.667 -1327.526)"/>
      <path id="Trazado_48" data-name="Trazado 48" d="M1671.341,1776.749h-6.549a.546.546,0,1,1,0-1.091h6.549a.546.546,0,1,1,0,1.091" transform="translate(-1252.981 -1336.861)"/>
      <path id="Trazado_49" data-name="Trazado 49" d="M1344.717,990.927s.78,59.9,3.3,98.889,7.482,68.807,7.482,68.807,8.543,3.07,14.15,1.462c0,0,4.643-34.205,5.7-45.767s-1.746-17.3-1.982-26.761,4.078-51.241,4.078-51.241,32.2,94.449,35.886,115.31c0,0,7.8,1.322,13.3-1.682,0,0,.171-37.143-.609-42.881-1.445-10.633-9.749-21.1-11.241-32.394s-2.357-39.637-6.465-56.637-12.167-36.1-12.167-36.1Z" transform="translate(-1012.414 -739.28)" fill="#130052"/>
      <path id="Trazado_50" data-name="Trazado 50" d="M1520.381,1058.087a.543.543,0,0,1-.26-.066,25.763,25.763,0,0,1-11.837-14.2.546.546,0,0,1,1.047-.306,25.122,25.122,0,0,0,11.311,13.543.546.546,0,0,1-.261,1.025" transform="translate(-1135.544 -785.351)" fill="#fff"/>
      <path id="Trazado_51" data-name="Trazado 51" d="M1564.578,1083.279a.545.545,0,0,1-.54-.475,143.191,143.191,0,0,0-13.025-43.965.546.546,0,0,1,.977-.487,144.351,144.351,0,0,1,13.13,44.312.546.546,0,0,1-.471.611.538.538,0,0,1-.071,0" transform="translate(-1167.687 -781.529)" fill="#fff"/>
      <path id="Trazado_52" data-name="Trazado 52" d="M948.6,792.566c.417-1.458,2.348-.2,3.6.029.768.139,1.8-3.727-2.167-6.2-2.527-1.577-5.209-3.834-4.159-6.08.421-.9,1.619-.936,3.316-.677,3.6.549,8.957,1.975,12.054,11.254.883,2.645,5.086,5.5,5.18,6,.4,2.158-1.5,2.99-3.038,4.392a32.382,32.382,0,0,0-8.866-3.8c-2.923-.7-6.3-3.577-5.918-4.924" transform="translate(-711.957 -586.871)" fill="#fff"/>
      <path id="Trazado_53" data-name="Trazado 53" d="M961.719,800.185a2.252,2.252,0,0,1-.958-.439,27.056,27.056,0,0,0-8.047-3.386,10.86,10.86,0,0,1-6.01-4.1,1.936,1.936,0,0,1-.3-1.5,1.424,1.424,0,0,1,.709-.924,3.307,3.307,0,0,1,2.49.258c.312.109.61.214.869.276a2.445,2.445,0,0,0,.215-1.355,4.971,4.971,0,0,0-2.617-3.813c-3.869-2.415-5.337-4.694-4.364-6.773.606-1.3,2.229-1.239,3.893-.985,4.224.645,9.461,2.549,12.489,11.62.552,1.653,2.648,3.518,3.9,4.632.958.852,1.237,1.112,1.3,1.444.373,2.017-.947,3.064-2.223,4.076-.329.26-.668.53-.984.818a.513.513,0,0,1-.357.156m.116-1.075h0Zm-14.386-8.054c-.014.05-.042.243.2.654a9.931,9.931,0,0,0,5.323,3.59,28.089,28.089,0,0,1,8.36,3.515l.281.17c.257-.221.517-.427.771-.628,1.3-1.034,2.041-1.689,1.841-2.947a13.15,13.15,0,0,0-.964-.9c-1.42-1.263-3.566-3.172-4.21-5.1-2.824-8.461-7.458-10.251-11.618-10.887-1.679-.256-2.5-.146-2.74.369-.873,1.866,1.668,3.959,3.954,5.386,3.169,1.979,3.483,4.863,2.921,6.319-.364.943-.965.913-1.141.881a8.235,8.235,0,0,1-1.187-.352c-.564-.2-1.337-.469-1.628-.319-.025.013-.1.054-.161.255" transform="translate(-710.278 -585.21)"/>
      <path id="Trazado_54" data-name="Trazado 54" d="M1321.009,735.34a60.419,60.419,0,0,1,19.583-4.739,125.923,125.923,0,0,1,18.225.268s24.055,63.064,24.053,67.24-10.132,9.519-23.725,6.112a106.453,106.453,0,0,0-35.68-2.328Z" transform="translate(-994.564 -549.884)" fill="#fdfcff"/>
      <path id="Trazado_55" data-name="Trazado 55" d="M1366.031,804.2a35.741,35.741,0,0,1-8.682-1.116,106.67,106.67,0,0,0-35.48-2.316.545.545,0,1,1-.135-1.082,106.26,106.26,0,0,1,35.88,2.34c9.348,2.344,17.276.472,20.986-2.422,1.328-1.036,2.061-2.159,2.061-3.161,0-3.208-15.554-44.85-23.893-66.72a119.837,119.837,0,0,0-17.794-.245,60.537,60.537,0,0,0-19.39,4.687.546.546,0,0,1-.476-.982,61.64,61.64,0,0,1,19.775-4.792,122.264,122.264,0,0,1,18.309.268.546.546,0,0,1,.471.35c.984,2.579,24.091,63.206,24.089,67.435,0,1.346-.882,2.774-2.481,4.021-2.534,1.977-7.156,3.735-13.241,3.735" transform="translate(-992.903 -548.214)"/>
      <path id="Trazado_56" data-name="Trazado 56" d="M1298.083,817.031a47.724,47.724,0,0,0-4.9.85c-14.552,3.4,2.441-67.4,2.441-67.4Z" transform="translate(-969.183 -565.022)" fill="#fff"/>
      <path id="Trazado_57" data-name="Trazado 57" d="M1290.6,816.885a3.676,3.676,0,0,1-2.69-1.143c-8.372-8.423,5.006-64.663,5.58-67.052a.545.545,0,0,1,1.061.255c-.139.579-13.813,58.033-5.866,66.028a2.746,2.746,0,0,0,2.771.716,48.4,48.4,0,0,1,4.952-.86.545.545,0,1,1,.135,1.082,47.347,47.347,0,0,0-4.839.84,4.849,4.849,0,0,1-1.1.134" transform="translate(-967.578 -563.361)" fill="#fff"/>
      <path id="Trazado_58" data-name="Trazado 58" d="M1086.172,812.127c-.339-26.849-.865-68.163-.865-68.163s-7.929.128-11.464,5.16-16.915,25.825-32.3,26.076-29.826-9.256-29.826-9.256l-5.89,10.021A46.686,46.686,0,0,0,1033.4,800.11c17.018,5.524,33.257-6.683,38.094-10.8Z" transform="translate(-757.272 -560.117)" fill="#fdfcff"/>
      <path id="Trazado_59" data-name="Trazado 59" d="M1084.51,811.011a.545.545,0,0,1-.545-.539c-.316-25-.793-62.542-.858-67.593-1.814.141-7.671.9-10.479,4.9-.212.3-.459.659-.739,1.065-4.268,6.184-17.256,25-32,25.243-.2,0-.4,0-.6,0-13.578,0-26.424-7.434-29.048-9.045l-5.463,9.3A46.636,46.636,0,0,0,1031.9,797.93c16.808,5.455,33.007-6.811,37.572-10.7a.546.546,0,0,1,.708.831c-4.674,3.982-21.271,16.537-38.616,10.908a47.658,47.658,0,0,1-27.9-24.456.546.546,0,0,1,.034-.485l5.89-10.021a.546.546,0,0,1,.77-.179c.143.094,14.491,9.423,29.518,9.166,14.178-.232,26.926-18.7,31.115-24.772.283-.409.531-.769.744-1.072,3.653-5.2,11.566-5.386,11.9-5.392a.556.556,0,0,1,.389.154.545.545,0,0,1,.166.384s.525,41.314.865,68.163a.546.546,0,0,1-.539.552Z" transform="translate(-755.61 -558.456)"/>
      <path id="Trazado_60" data-name="Trazado 60" d="M1271.5,922.373c.941-.8.572-.433.572-.433l-1.749,40.1s15.261,7.029,15.261,6.514c0-.166-.12-8.651-.281-21.46Z" transform="translate(-956.407 -694.048)" fill="#fff"/>
      <path id="Trazado_61" data-name="Trazado 61" d="M1283.968,967.37c-.64,0-3.058-.822-15.531-6.567a.546.546,0,0,1-.317-.519l1.705-39.1a.546.546,0,0,1-.337-.961c.747-.636,1.026-.875,1.4-.472a.536.536,0,0,1,.066.646l-1.726,39.563c4.786,2.2,12.04,5.449,14.146,6.188-.005-.41-.013-1-.024-1.763-.046-3.41-.138-10.187-.249-19.022a.546.546,0,1,1,1.091-.014c.112,8.834.2,15.611.249,19.021.021,1.539.032,2.395.032,2.447a.587.587,0,0,1-.261.478.384.384,0,0,1-.243.07" transform="translate(-954.745 -692.319)" fill="#fff"/>
      <path id="Trazado_62" data-name="Trazado 62" d="M1322.494,897.729c-1.135,1.13.968,2.582,1.787,3.8.5.748-.177,1.313-1.085.993-2.627-.926-11.273-4.144-13.286-1.9-.7.785-.3,2.376,1,3.834,2.732,3.052,11.354,6.6,16.231,7.465,2.89.514,7.537,2.8,8.047,2.657,2.177-.6,2.01-3,2.547-5.292.053-.227-3.838-2.293-7.824-7.606-2.076-2.766-6.368-4.993-7.417-3.948" transform="translate(-985.949 -675.686)" fill="#fff"/>
      <path id="Trazado_63" data-name="Trazado 63" d="M1333.484,913.464a10.214,10.214,0,0,1-2.585-.858,34.04,34.04,0,0,0-5.5-1.814c-5.228-.93-13.772-4.545-16.542-7.638-1.5-1.674-1.91-3.55-1-4.563,1.916-2.132,8.2-.262,13.458,1.606l.415.147c.32.113.508.038.533.006a.441.441,0,0,0-.081-.18,9.23,9.23,0,0,0-.794-.951c-.9-.989-2.125-2.343-.925-3.539a1.715,1.715,0,0,1,1.4-.414c1.984.143,5.181,2.209,6.841,4.422a32.523,32.523,0,0,0,7.069,6.955c.707.52.945.7.85,1.1-.111.474-.193.964-.272,1.437-.3,1.818-.616,3.7-2.663,4.257a.75.75,0,0,1-.2.026m-22.737-14.755a2.753,2.753,0,0,0-2.079.611c-.438.488-.183,1.783,1,3.106,2.557,2.856,10.891,6.4,15.92,7.292a34.67,34.67,0,0,1,5.709,1.872,20.4,20.4,0,0,0,2.159.778c1.254-.376,1.508-1.53,1.814-3.367.066-.395.133-.8.219-1.208-.1-.078-.236-.177-.368-.273a33.571,33.571,0,0,1-7.3-7.179c-1.587-2.115-4.553-3.88-6.047-3.988a.784.784,0,0,0-.549.1c-.4.4-.043.925.963,2.033a10.091,10.091,0,0,1,.892,1.075,1.2,1.2,0,0,1,.039,1.457,1.531,1.531,0,0,1-1.758.355l-.418-.148c-4.718-1.675-8.13-2.516-10.2-2.516" transform="translate(-984.3 -674.023)"/>
      <path id="Trazado_64" data-name="Trazado 64" d="M1503.863,767.29c-1.836-7.97-5.2-16.271-6.187-20.7-2.03-9.118,2.769-8.85,2.769-8.85s10.29,5.188,17.725,18.808c6.211,11.377,10.177,34.518-3.591,45.042Z" transform="translate(-1127.196 -555.432)" fill="#fff"/>
      <path id="Trazado_65" data-name="Trazado 65" d="M1512.914,800.474a.545.545,0,0,1-.332-.979c7.567-5.783,9.111-15.028,9.074-21.764a50.5,50.5,0,0,0-5.63-22.582c-6.854-12.555-16.242-17.908-17.379-18.522a2.374,2.374,0,0,0-1.654.878c-.748.9-1.433,2.893-.45,7.307.424,1.9,1.3,4.544,2.309,7.6,1.329,4.019,2.837,8.574,3.878,13.093a.546.546,0,0,1-1.063.245c-1.03-4.469-2.528-9-3.85-13-1.021-3.085-1.9-5.749-2.338-7.707-.871-3.914-.636-6.7.7-8.27a3.418,3.418,0,0,1,2.632-1.244.545.545,0,0,1,.215.057c.1.053,10.528,5.422,17.959,19.034,6.661,12.2,10.079,35.175-3.739,45.736a.545.545,0,0,1-.331.112" transform="translate(-1125.531 -553.769)" fill="#fff"/>
      <path id="Trazado_66" data-name="Trazado 66" d="M1445.861,891.618a25.62,25.62,0,0,1-10.165,4.566c-16.268,3.6-29.794-11.83-29.794-11.83l3.64-7.825s14.8,3,21.636,0c6.14-2.7,5.912-10.768,3.967-19.212Z" transform="translate(-1058.479 -645.459)" fill="#fff"/>
      <path id="Trazado_67" data-name="Trazado 67" d="M1429.09,895.605c-14.076,0-25.137-12.414-25.26-12.555a.546.546,0,0,1-.085-.59l3.64-7.825a.546.546,0,0,1,.6-.3c.147.03,14.713,2.933,21.308.035,4.85-2.131,6.045-8.212,3.655-18.59a.546.546,0,1,1,1.063-.245c2.527,10.971,1.127,17.458-4.279,19.834-6.34,2.786-19.016.595-21.54.118l-3.307,7.108c1.867,1.99,14.424,14.636,29.027,11.4a25.181,25.181,0,0,0,9.951-4.467.546.546,0,1,1,.663.867,26.267,26.267,0,0,1-10.378,4.666,23.357,23.357,0,0,1-5.062.551" transform="translate(-1056.817 -643.796)"/>
      <path id="Trazado_68" data-name="Trazado 68" d="M1567.558,925.1a.545.545,0,0,1-.329-.981c10.825-8.184,9.2-21.884,9.185-22.022a.546.546,0,0,1,1.082-.14c.018.144,1.731,14.458-9.609,23.032a.545.545,0,0,1-.328.11" transform="translate(-1179.775 -678.713)"/>
      <path id="Trazado_69" data-name="Trazado 69" d="M1338.569,624.14a.7.7,0,0,1-1.04-.245c-.912-1.832-2.421-5.4-4.989-5.8-3.289-.5-8.6-1.073-8.855,1.517-.226,2.271.53,6.1-1.619,9.083-.206.285.022.7.317.891l1.579,1.141a2.641,2.641,0,0,1,.727,1.383c.21,1.207.557,3.783,1,4.085.868.589,4.939.029,4.939.029l4.726,12.112a.789.789,0,0,1-.483,1.025l-3.8,1.621s2.866,3.075,12.606,1.677c4.074-.585,7.239-3.656,8.94-5.709a1.2,1.2,0,0,0-.8-1.956c-3.627-.419-10.693-2.6-12.69-13.054a.9.9,0,0,1,.292-.845c.916-.8,3.368-3.148,2.747-5.292-.656-2.265-2.4-2.5-3.6-1.665" transform="translate(-995.301 -465.032)" fill="#fff"/>
      <path id="Trazado_70" data-name="Trazado 70" d="M1337.29,651.918c-6.13,0-8.178-2.105-8.279-2.215a.546.546,0,0,1,.185-.874l3.8-1.621a.277.277,0,0,0,.178-.138.247.247,0,0,0,.008-.195l-4.568-11.707c-1.308.16-4.036.407-4.892-.173-.491-.333-.735-1.394-1.127-3.8-.039-.237-.074-.455-.107-.641a2.342,2.342,0,0,0-.486-1.019l-1.6-1.156a1.415,1.415,0,0,1-.6-.883.987.987,0,0,1,.163-.77c1.505-2.088,1.485-4.7,1.47-6.795a19.954,19.954,0,0,1,.049-2.023,2.156,2.156,0,0,1,.862-1.54c1.718-1.333,5.742-.9,8.618-.463,2.627.4,4.142,3.519,5.145,5.582l.25.51a.129.129,0,0,0,.087.071.193.193,0,0,0,.155-.032,2.751,2.751,0,0,1,2.5-.393,3.211,3.211,0,0,1,1.934,2.355c.664,2.293-1.539,4.651-2.911,5.853a.355.355,0,0,0-.115.332c1.9,9.968,8.472,12.182,12.217,12.615a1.754,1.754,0,0,1,1.428,1.088,1.716,1.716,0,0,1-.275,1.758c-1.6,1.936-4.944,5.278-9.282,5.9a33.873,33.873,0,0,1-4.8.37m-6.773-2.466c1.322.748,4.666,1.986,11.422,1.016,3.976-.571,7.093-3.7,8.6-5.517a.634.634,0,0,0,.1-.655.654.654,0,0,0-.541-.411c-4.043-.467-11.128-2.842-13.163-13.494a1.452,1.452,0,0,1,.468-1.358c.948-.83,3.1-2.953,2.582-4.729a2.245,2.245,0,0,0-1.252-1.631,1.676,1.676,0,0,0-1.514.263,1.28,1.28,0,0,1-1.047.19,1.226,1.226,0,0,1-.792-.641c-.08-.161-.165-.335-.254-.52-.9-1.858-2.267-4.665-4.329-4.98-4.139-.633-6.758-.55-7.784.246a1.077,1.077,0,0,0-.445.786c-.054.54-.049,1.2-.043,1.906.017,2.242.038,5.029-1.644,7.4a.4.4,0,0,0,.137.159l1.6,1.157a3.08,3.08,0,0,1,.945,1.732c.033.189.069.411.109.653a15.722,15.722,0,0,0,.694,3.093c.487.259,2.7.172,4.527-.079a.545.545,0,0,1,.583.343l4.726,12.112a1.332,1.332,0,0,1-.042,1.053,1.316,1.316,0,0,1-.775.688Zm6.392-26.966h0Z" transform="translate(-993.64 -463.378)"/>
      <path id="Trazado_71" data-name="Trazado 71" d="M1167.677,1675.555s.57,11.3-.344,18.5,1.2,15.687-2.172,17.482-10.982.375-11.541-1.23c-1.313-3.773,3.38-4.77,5-6.469s-.129-14.827-3.236-19.428,12.289-8.859,12.289-8.859" transform="translate(-868.367 -1261.496)" fill="#fff"/>
      <path id="Trazado_72" data-name="Trazado 72" d="M1159.188,1711.258a17.469,17.469,0,0,1-5.869-.981c-1.072-.42-1.686-.894-1.88-1.45-1.085-3.116,1.457-4.64,3.312-5.753a9.241,9.241,0,0,0,1.812-1.271c1.332-1.394-.215-14.187-3.293-18.746a2.67,2.67,0,0,1-.333-2.5c1.468-3.977,12.462-7.058,12.929-7.188a.545.545,0,0,1,.69.5c.006.113.562,11.431-.348,18.6a53.1,53.1,0,0,0-.2,7.822c.109,4.7.2,8.765-2.255,10.073a10.043,10.043,0,0,1-4.564.9m6.309-36.65c-3.408,1.018-10.547,3.644-11.536,6.323a1.56,1.56,0,0,0,.214,1.515c3.033,4.492,5.172,18.024,3.178,20.111a9.9,9.9,0,0,1-2.04,1.453c-2.2,1.317-3.581,2.339-2.843,4.459.046.131.359.445,1.247.792,2.35.921,7.11,1.418,9.522.135,1.864-.991,1.777-4.742,1.677-9.085a54.767,54.767,0,0,1,.21-7.985,128.373,128.373,0,0,0,.371-17.719" transform="translate(-866.703 -1259.833)"/>
      <path id="Trazado_73" data-name="Trazado 73" d="M1098.42,1442.86s-8.369-.015-10.755,2.408c-2.281,2.318.55,17.479,3.657,22.211s6.85,2.913,8.038-1.434-.94-23.185-.94-23.185" transform="translate(-818.26 -1086.304)" fill="#fff"/>
      <path id="Trazado_74" data-name="Trazado 74" d="M1093.664,1469.154c-1.089,0-2.769-.512-4.428-3.038-2.952-4.5-6.243-20.2-3.59-22.893,2.516-2.556,10.781-2.569,11.145-2.571a.545.545,0,0,1,.541.484c.088.774,2.126,18.993.925,23.39-.705,2.581-2.225,4.3-4.066,4.587a3.367,3.367,0,0,1-.527.041m2.637-27.407c-2.571.05-8.172.509-9.877,2.241-1.985,2.016.556,16.7,3.724,21.529,1.2,1.829,2.574,2.722,3.872,2.518,1.384-.219,2.6-1.674,3.184-3.8,1.042-3.812-.581-19.508-.9-22.491" transform="translate(-816.63 -1084.641)"/>
      <path id="Trazado_75" data-name="Trazado 75" d="M1158.159,1441.874a2.068,2.068,0,0,1,.947-2.309,7.272,7.272,0,0,1,2.811-1.15c3.517-.009,3.432,1.406,8.451,3.511,3.152,1.322,2.879,8.827,1.62,11.839s-4.693,7.982-9.183,6.544-6.112-9.7-4.73-13.781a8.319,8.319,0,0,0,.083-4.654" transform="translate(-871.535 -1082.957)" fill="#fff"/>
      <path id="Trazado_76" data-name="Trazado 76" d="M1162.764,1459.454a5.83,5.83,0,0,1-1.788-.288,7.129,7.129,0,0,1-3.985-3.839c-1.6-3.177-2.073-7.75-1.1-10.636a7.812,7.812,0,0,0,.072-4.338,2.619,2.619,0,0,1,1.2-2.919,7.074,7.074,0,0,1,3.088-1.227h.032a7.248,7.248,0,0,1,4.558,1.433,26.563,26.563,0,0,0,4.073,2.12c3.662,1.537,3.118,9.669,1.913,12.552-1.2,2.863-4.106,7.141-8.065,7.141m-5.742-19.383a8.932,8.932,0,0,1-.093,4.969c-.88,2.6-.424,6.9,1.036,9.8a6.238,6.238,0,0,0,3.344,3.292c4.122,1.321,7.371-3.5,8.513-6.235,1.2-2.885,1.351-10-1.328-11.125a27.58,27.58,0,0,1-4.224-2.2,6.161,6.161,0,0,0-3.983-1.271h-.032a6.017,6.017,0,0,0-2.535,1.074,1.524,1.524,0,0,0-.7,1.7" transform="translate(-869.871 -1081.295)"/>
      <path id="Trazado_77" data-name="Trazado 77" d="M1168.556,1414.694c15.218-13.209,15.635-31.888,14.813-37.031s-4.526-4.732-3.5-1.235-.412,14.813-9.586,27.779-23.212,17.536-27.79,16.824h0c-11.952-1.364-32.9,2.367-32.9,2.367-5.688-.289-12.491-.238-16.623-.863-7.331-1.109-6.867-6.8-8.556-10.095a25.392,25.392,0,0,1-1.961-5.458c-3.728-15-8.515-16.11-8.515-16.11s-5.475-2.288-11.209,3.268-4.389,5.05-14.806,10.067c0,0-3.526,2.418.559,6.767,4.615,4.913,15.664.78,17.563,1.641,1.716.778-.081,10.762.13,15.253,1.477,31.347,16.823,36.937,25.972,38.631a12.135,12.135,0,0,0,4.079-.2c2.327,4.568,4.048,10.393,3.278,11.644-1.1,1.789-5.017,3.54-3.162,6.592.789,1.3,7.7,1.115,10.319-1.087s-1.547-9.2-1.376-15.689a38.383,38.383,0,0,0-.1-3.981c15.544-5.359,37.967-16.442,39.719-16.025,4.744,1.13,2.259,7.794,9.262,10.11,3.888,1.285,12.03,13.724,3.05,19.994s1.186,7.455,4.744,6.269,6.947-16.1,8.133-19.146-3.389-4.067-4.236-8.811,7.458-14.384,2.88-23.721c-2.045-4.172-11.09-8.277-.179-17.748" transform="translate(-787.9 -1034.307)" fill="#fdfcff"/>
      <path id="Trazado_78" data-name="Trazado 78" d="M1097.977,1484.219a11.437,11.437,0,0,1-1.808-.129,2.673,2.673,0,0,1-1.954-.942c-1.556-2.561.4-4.388,1.827-5.722a8.239,8.239,0,0,0,1.337-1.439c.5-.807-.626-5.732-3.12-10.752a11.69,11.69,0,0,1-3.872.135c-16.681-3.089-25.322-15.892-26.418-39.142a57.7,57.7,0,0,1,.3-6.39c.223-2.808.638-8.035-.108-8.391a12.219,12.219,0,0,0-3.652.267c-4.263.622-10.707,1.562-14.082-2.031-1.556-1.656-2.262-3.265-2.1-4.781a4.142,4.142,0,0,1,1.628-2.809.566.566,0,0,1,.072-.042c8.931-4.3,9.143-4.511,12.681-8.019.563-.558,1.208-1.2,1.983-1.948,5.754-5.576,11.24-3.6,11.766-3.393.584.174,5.267,2,8.868,16.495a25.017,25.017,0,0,0,1.917,5.341,16.771,16.771,0,0,1,1.013,2.765c.933,3.071,1.9,6.246,7.139,7.039a100.826,100.826,0,0,0,10.682.646c1.945.056,3.955.115,5.825.209,1.272-.222,21.4-3.677,32.976-2.363l.042,0c3.976.62,17.929-3.41,27.26-16.6,9.27-13.1,10.411-24.24,9.508-27.31a2.85,2.85,0,0,1,.39-2.9,1.556,1.556,0,0,1,1.625-.331c1.236.413,2.187,1.994,2.545,4.229.958,5.987.131,24.4-14.994,37.53l-.358-.412.358.412c-8.067,7-4.78,10.793-1.879,14.138a14.934,14.934,0,0,1,2.19,2.957c3.018,6.156.671,12.33-1.215,17.29-1.02,2.683-1.9,5-1.619,6.575a9.111,9.111,0,0,0,2.633,4.643c1.188,1.322,2.309,2.571,1.574,4.461-.267.687-.654,2.008-1.143,3.681-2.187,7.481-4.556,14.862-7.326,15.785-2.359.786-7.721.646-8.857-1.613-.762-1.517.458-3.408,3.628-5.621a8.6,8.6,0,0,0,3.712-8.755c-.72-4.928-4.455-9.557-6.621-10.274-4.048-1.338-5.147-4.122-6.03-6.359-.725-1.837-1.3-3.288-3.187-3.738-.866-.048-6.883,2.56-13.266,5.346-7.887,3.442-17.672,7.712-25.752,10.527.081,1.215.107,2.43.075,3.617a30.777,30.777,0,0,0,1.285,8.089c.884,3.5,1.648,6.529-.1,8-1.705,1.436-4.921,2.024-7.374,2.024m-3.412-20.136a.546.546,0,0,1,.486.3c1.99,3.906,4.3,10.49,3.257,12.177a8.882,8.882,0,0,1-1.521,1.665c-1.653,1.544-2.659,2.681-1.64,4.358.044.073.346.292,1.2.432,2.217.361,6.448-.09,8.3-1.653,1.229-1.035.542-3.753-.252-6.9a31.6,31.6,0,0,1-1.318-8.385,38.1,38.1,0,0,0-.1-3.924.546.546,0,0,1,.366-.558c8.114-2.8,18.069-7.142,26.068-10.633,9.588-4.184,13.027-5.629,13.955-5.407,2.443.581,3.175,2.435,3.95,4.4.882,2.235,1.794,4.546,5.358,5.724,2.727.9,6.617,6.077,7.358,11.152a9.631,9.631,0,0,1-4.167,9.807c-2.543,1.776-3.738,3.32-3.277,4.236.765,1.521,5.388,1.784,7.537,1.068,2.461-.82,5.169-10.081,6.624-15.056.5-1.7.889-3.04,1.173-3.77.47-1.209-.146-1.976-1.369-3.337a10.148,10.148,0,0,1-2.9-5.18c-.335-1.873.6-4.321,1.673-7.155,1.811-4.764,4.064-10.692,1.255-16.423a14.239,14.239,0,0,0-2.035-2.722c-2.913-3.359-6.9-7.96,1.988-15.677,14.676-12.738,15.5-31.1,14.632-36.533-.344-2.153-1.192-3.159-1.813-3.367a.482.482,0,0,0-.522.082c-.227.219-.39.825-.1,1.81.989,3.363-.072,14.691-9.664,28.248-8.964,12.671-23.169,17.83-28.3,17.051-11.736-1.337-32.532,2.325-32.741,2.363a.539.539,0,0,1-.123.008c-1.876-.1-3.9-.154-5.863-.212a101.314,101.314,0,0,1-10.813-.657c-5.921-.9-7.085-4.724-8.02-7.8a16.017,16.017,0,0,0-.941-2.584,26.14,26.14,0,0,1-2-5.576c-3.559-14.32-8.074-15.7-8.119-15.712a.662.662,0,0,1-.078-.025c-.209-.086-5.231-2.064-10.619,3.156-.771.746-1.413,1.384-1.974,1.939-3.654,3.623-3.878,3.845-12.93,8.2a3.082,3.082,0,0,0-1.136,2.022c-.121,1.182.487,2.494,1.81,3.9,2.985,3.178,9.09,2.287,13.13,1.7,2.316-.338,3.557-.5,4.26-.181,1.375.624,1.179,4.005.746,9.471a58.1,58.1,0,0,0-.3,6.253c1.587,33.688,19.606,37.024,25.527,38.12a11.623,11.623,0,0,0,3.883-.2.529.529,0,0,1,.1-.009" transform="translate(-786.237 -1032.643)"/>
      <path id="Trazado_79" data-name="Trazado 79" d="M1235.829,1722.672a11.44,11.44,0,0,1-1.809-.129,2.672,2.672,0,0,1-1.954-.942c-1.557-2.561.4-4.389,1.827-5.723a8.21,8.21,0,0,0,1.337-1.438c.871-1.416-3.179-12-6.416-15.734a7.015,7.015,0,0,1-1.1-6.191.546.546,0,0,1,1.039.334,6.015,6.015,0,0,0,.9,5.161c3.234,3.729,7.812,14.878,6.5,17a8.887,8.887,0,0,1-1.521,1.664c-1.652,1.544-2.659,2.681-1.64,4.359.044.073.346.292,1.2.432,2.214.364,6.447-.09,8.3-1.653,1.228-1.034.542-3.753-.253-6.9a31.6,31.6,0,0,1-1.317-8.385,37.408,37.408,0,0,0-2.863-15.454.546.546,0,0,1,1-.441,38.554,38.554,0,0,1,2.956,15.924,30.781,30.781,0,0,0,1.285,8.09c.884,3.5,1.648,6.529-.1,8-1.705,1.436-4.921,2.024-7.374,2.024" transform="translate(-924.089 -1271.096)"/>
      <path id="Trazado_80" data-name="Trazado 80" d="M397.92,1634.647l4.872,18.475a29.878,29.878,0,0,1,.757,11.327l-.976,7.8,24.608-4.016L424,1665.9A28.979,28.979,0,0,1,413,1649.263l-4.235-17.823Z" transform="translate(-299.587 -1228.282)" fill="#fff"/>
      <path id="Trazado_81" data-name="Trazado 81" d="M400.912,1671.139a.545.545,0,0,1-.541-.613l.975-7.8a29.2,29.2,0,0,0-.743-11.121l-4.872-18.475a.545.545,0,0,1,.373-.662l10.842-3.208a.546.546,0,0,1,.686.4l4.235,17.824a28.466,28.466,0,0,0,10.8,16.32l3.18,2.342a.546.546,0,0,1-.236.978L401,1671.131a.535.535,0,0,1-.088.007m-3.991-37.78,4.737,17.963a30.283,30.283,0,0,1,.771,11.534l-.885,7.081,22.609-3.689-2.136-1.574a29.56,29.56,0,0,1-11.213-16.946l-4.1-17.263Z" transform="translate(-297.925 -1226.62)"/>
      <path id="Trazado_82" data-name="Trazado 82" d="M406.812,1765.67c-.185-3.261-.23-9.756,1.9-13.828a1.6,1.6,0,0,1,2.011-.733l5.631,2.253a1.331,1.331,0,0,0,1.825-1.236v-.384a1.025,1.025,0,0,1,.972-1.024l4.851-.254a11.417,11.417,0,0,1,5.268.988c5.016,2.249,15.669,7.56,18.215,13.112a1.982,1.982,0,0,1-1.748,2.767c-4.4.2-15.523.546-36.8.365a2.146,2.146,0,0,1-2.125-2.025" transform="translate(-306.22 -1317.882)" fill="#fff"/>
      <path id="Trazado_83" data-name="Trazado 83" d="M418.692,1766.631c-3.433,0-7.23-.016-11.424-.051a2.7,2.7,0,0,1-2.666-2.54c-.2-3.491-.207-9.966,1.958-14.111a2.135,2.135,0,0,1,2.7-.987l5.631,2.253a.785.785,0,0,0,1.077-.729v-.384a1.571,1.571,0,0,1,1.489-1.569l4.851-.254a12.012,12.012,0,0,1,5.519,1.035c5.807,2.6,15.93,7.8,18.488,13.382a2.428,2.428,0,0,1-.145,2.31,2.563,2.563,0,0,1-2.075,1.229c-3.8.171-11.674.417-25.4.417m-13-2.653a1.605,1.605,0,0,0,1.585,1.511c20.938.178,32.023-.152,36.767-.364a1.474,1.474,0,0,0,1.193-.708,1.352,1.352,0,0,0,.085-1.286c-2.5-5.45-13.38-10.8-17.942-12.841a10.917,10.917,0,0,0-5.016-.942l-4.851.254a.48.48,0,0,0-.455.479v.384a1.876,1.876,0,0,1-2.573,1.742l-5.631-2.253a1.049,1.049,0,0,0-1.325.479c-2.044,3.914-2.027,10.167-1.835,13.545" transform="translate(-304.556 -1316.22)"/>
      <path id="Trazado_84" data-name="Trazado 84" d="M435.879,1802.485c-4.418,0-9.835-.1-16.294-.4a.546.546,0,1,1,.05-1.09c21.262.972,31.162-.142,31.26-.154a.545.545,0,0,1,.127,1.084,150.5,150.5,0,0,1-15.143.558" transform="translate(-315.506 -1355.82)"/>
      <path id="Trazado_85" data-name="Trazado 85" d="M482.322,1766.279a.542.542,0,0,1-.3-.089l-8.374-5.491a.546.546,0,0,1,.6-.913l8.374,5.491a.546.546,0,0,1-.3,1" transform="translate(-356.417 -1324.845)"/>
      <path id="Trazado_86" data-name="Trazado 86" d="M164.092,1657.053l-2.976,20.891h-7.532l.732-20.546Z" transform="translate(-115.631 -1247.566)" fill="#fff"/>
      <path id="Trazado_87" data-name="Trazado 87" d="M159.454,1676.824h-7.532a.546.546,0,0,1-.545-.565l.732-20.547a.546.546,0,0,1,.526-.526l9.775-.344a.529.529,0,0,1,.425.181.546.546,0,0,1,.134.442l-2.976,20.891a.546.546,0,0,1-.54.469m-6.966-1.091h6.493l2.817-19.777-8.617.3Z" transform="translate(-113.969 -1245.901)"/>
      <path id="Trazado_88" data-name="Trazado 88" d="M294.9,1095.108s9.876,63.789,10.269,79.022,6.73,61.327,6.73,61.327a33.763,33.763,0,0,1-17.438.909s-29.151-81.627-31.33-106.652,5.106-36.481,5.106-36.481Z" transform="translate(-197.8 -823.076)" fill="#130052"/>
      <path id="Trazado_89" data-name="Trazado 89" d="M191.92,1077.836s-33.475,102.219-34.023,143.771a50.529,50.529,0,0,1-17.982,0s-6.8-114.08,12.8-146.04Z" transform="translate(-104.481 -809.775)" fill="#130052"/>
      <path id="Trazado_90" data-name="Trazado 90" d="M131.882,1746.484a45.3,45.3,0,0,1-14,.063,3.28,3.28,0,0,1-2.618-4.133c1.4-4.96,4.315-14.118,8.013-18.917a.552.552,0,0,1,.958.163l.132.863a.53.53,0,0,0,1,.146l.814-1.724a1.169,1.169,0,0,1,.894-.562l2.86-.11a1.169,1.169,0,0,1,1.26.961l.1,1.36a.53.53,0,0,0,.995.215l1.232-1.266a.43.43,0,0,1,.776.267l-.147,5.429a59.116,59.116,0,0,0,.85,11.71l.337,1.944c.176,1.793-1.664,3.4-3.455,3.592" transform="translate(-86.685 -1296.665)" fill="#fff"/>
      <path id="Trazado_91" data-name="Trazado 91" d="M122.712,1745.956a41.376,41.376,0,0,1-6.578-.537,3.8,3.8,0,0,1-2.594-1.7,3.852,3.852,0,0,1-.463-3.115c1.42-5.047,4.361-14.241,8.106-19.1a1.1,1.1,0,0,1,1.906.32.582.582,0,0,1,.023.094l.131.862.785-1.728a1.736,1.736,0,0,1,1.337-.873l2.889-.112a1.714,1.714,0,0,1,1.818,1.411.526.526,0,0,1,.007.055l.1,1.36c.024-.044.025-.091.06-.127l1.212-1.244a.975.975,0,0,1,1.734.64l-.147,5.429a58.694,58.694,0,0,0,.842,11.6l.337,1.944c.215,2.173-1.9,4.01-3.935,4.228-.39.042-.8.091-1.231.143a50.371,50.371,0,0,1-6.338.454m-.662-23.777c-3.639,4.712-6.525,13.748-7.923,18.716a2.761,2.761,0,0,0,.332,2.232,2.67,2.67,0,0,0,1.847,1.215,41.821,41.821,0,0,0,12.613.078c.437-.052.851-.1,1.245-.144,1.494-.16,3.117-1.5,2.971-3l-.332-1.9a59.778,59.778,0,0,1-.858-11.818l.138-5.127-1.021,1.048a1.076,1.076,0,0,1-1.973-.511l-.1-1.328a.625.625,0,0,0-.667-.49l-2.89.112a.617.617,0,0,0-.447.3l-.789,1.677a1.076,1.076,0,0,1-2.036-.3Zm8.173,22.639h0Z" transform="translate(-85.026 -1294.998)"/>
      <path id="Trazado_92" data-name="Trazado 92" d="M135.449,1803.2a26.129,26.129,0,0,1-6.643-.882.546.546,0,1,1,.278-1.055c7.073,1.859,12.028.036,12.077.018a.545.545,0,0,1,.389,1.019,18.371,18.371,0,0,1-6.1.9" transform="translate(-96.669 -1356.125)"/>
      <path id="Trazado_93" data-name="Trazado 93" d="M148.012,1774.921h-6.907a.546.546,0,0,1,0-1.091h6.907a.546.546,0,1,1,0,1.091" transform="translate(-105.825 -1335.485)"/>
      <path id="Trazado_94" data-name="Trazado 94" d="M100.586,595.059c-2.108,12.108-14.4,25.106-26.77,23.39-2.019-.28-7.464-1.428-13.187-8.056-7.889,5.645-17.943,4.15-23.364-2.4-6.625-8-5.721-22.82,3.929-30.423-7.645-.064-9.7-3-10.307-4.162-3.58-6.828,5.873-22.8,14.7-22.824,3.256-.009,7.577,4.015,16.085,12.064,8.787,8.313,9.161,9.924,11.821,10.212,7.818.847,10.156-12.477,20.528-13.95,7.1-1.009,15.03,3.953,15.63,8.637.515,4.021-4.676,5.44-7.6,13.471-2.176,5.981-.493,8.478-1.461,14.043" transform="translate(-22.668 -414.523)" fill="#130052"/>
      <path id="Trazado_95" data-name="Trazado 95" d="M242.6,559.666c.6,1.853,0,7.1-2.783,8.01s-6.7-2.865-7.3-4.718,1.163-4.092,3.948-5,5.533-.144,6.138,1.709" transform="translate(-174.963 -419.788)"/>
      <path id="Trazado_96" data-name="Trazado 96" d="M368.043,1104.006s3.1,20.708-.691,24.678c0,0-12.4-13.58-12.985-23.388Z" transform="translate(-266.797 -831.187)" fill="#ede6ff"/>
      <path id="Trazado_97" data-name="Trazado 97" d="M365.69,1127.567h-.006a.547.547,0,0,1-.4-.177c-.511-.561-12.534-13.836-13.126-23.723a.546.546,0,0,1,.493-.576l13.676-1.29a.548.548,0,0,1,.591.462c.129.856,3.1,21.02-.836,25.135a.546.546,0,0,1-.395.169m-12.4-23.441c.861,8.42,10.23,19.588,12.368,22.04,2.385-3.841,1.079-17.457.256-23.23Z" transform="translate(-265.135 -829.525)"/>
      <path id="Trazado_98" data-name="Trazado 98" d="M196.535,1095.671s-3.861,16.707-8.443,20.874-17.093-14.464-24.058-14.863-14.628,16.405-14.628,16.405,1.941-20.986,7.674-25.431Z" transform="translate(-112.485 -822.641)" fill="#ede6ff"/>
      <path id="Trazado_99" data-name="Trazado 99" d="M147.744,1116.971a.545.545,0,0,1-.543-.6c.08-.866,2.03-21.274,7.883-25.812a.549.549,0,0,1,.376-.113l39.454,3.015a.545.545,0,0,1,.49.667c-.159.689-3.953,16.922-8.607,21.155-2.849,2.591-7.786-1.956-13.013-6.771-4.151-3.824-8.444-7.779-11.443-7.951-6.525-.386-14.026,15.922-14.1,16.087a.545.545,0,0,1-.5.319m14.388-17.5c.091,0,.181,0,.272.008,3.388.194,7.827,4.284,12.12,8.238,4.635,4.27,9.429,8.686,11.54,6.766,3.915-3.561,7.38-16.931,8.129-19.975l-38.6-2.95c-4.079,3.441-6.169,15.953-6.944,21.831,2.528-4.778,8.07-13.918,13.482-13.918" transform="translate(-110.823 -820.98)"/>
      <path id="Trazado_100" data-name="Trazado 100" d="M560.792,678.072l6.373-6.645a1.372,1.372,0,0,1,2.225,1.548l-1.962,4.05a8.382,8.382,0,0,0,2,.664,4.965,4.965,0,0,0,3.867-1.583c1.164-1.217,3.046-3.153,3.684-3.629.946-.707,2.166-1.8,3.519-1.912l.041,0a1.715,1.715,0,0,1,1.566,2.642l-2.664,4.12a16.7,16.7,0,0,1-8.1,6.546l-8.614,3.268-.639,24.565L550.9,703.152l5.025-16.245a24.949,24.949,0,0,1,4.866-8.834" transform="translate(-414.764 -504.851)" fill="#fff"/>
      <path id="Trazado_101" data-name="Trazado 101" d="M560.427,710.6a.546.546,0,0,1-.331-.112l-11.188-8.551a.546.546,0,0,1-.19-.595l5.025-16.245a25.345,25.345,0,0,1,4.973-9.027l.021-.023,6.373-6.645a1.918,1.918,0,0,1,3.109,2.163l-1.713,3.537a5.469,5.469,0,0,0,1.3.395,4.38,4.38,0,0,0,3.438-1.416c1.356-1.417,3.108-3.208,3.751-3.689.129-.1.264-.2.4-.309a6.809,6.809,0,0,1,3.4-1.71,2.262,2.262,0,0,1,2.109,3.479l-2.664,4.12a17.133,17.133,0,0,1-8.364,6.76l-8.272,3.138-.63,24.2a.545.545,0,0,1-.545.531m-10.554-9.3,10.037,7.671.612-23.5a.545.545,0,0,1,.352-.5l8.615-3.268a16.047,16.047,0,0,0,7.835-6.332l2.664-4.12a1.17,1.17,0,0,0-1.068-1.8,6,6,0,0,0-2.855,1.488c-.145.111-.284.219-.418.319a50.793,50.793,0,0,0-3.616,3.57,5.5,5.5,0,0,1-4.3,1.751,8.494,8.494,0,0,1-2.2-.714.545.545,0,0,1-.261-.733l1.962-4.05a.826.826,0,0,0-1.34-.932l-6.362,6.633a24.269,24.269,0,0,0-4.75,8.629Z" transform="translate(-413.101 -503.199)"/>
      <path id="Trazado_102" data-name="Trazado 102" d="M516.7,781.466l27.908,22.116-12.439,12.9-23.674-19.721Z" transform="translate(-382.836 -588.352)" fill="#fff"/>
      <path id="Trazado_103" data-name="Trazado 103" d="M530.506,815.362a.547.547,0,0,1-.349-.126l-23.673-19.721a.546.546,0,0,1-.132-.677l8.2-15.293a.546.546,0,0,1,.82-.17l27.908,22.116a.546.546,0,0,1,.054.806L530.9,815.2a.545.545,0,0,1-.393.167m-22.982-20.4,22.942,19.111,11.67-12.1L515.21,780.636Z" transform="translate(-381.174 -586.689)"/>
      <path id="Trazado_104" data-name="Trazado 104" d="M135.4,984.911l8.889,13.837,3.982-2.7a11.271,11.271,0,0,1,8.317-1.765s4.282.569,6.11,2.043c4.409,3.558.5,5.772-.344,6.219a8.771,8.771,0,0,1-5.257,1.1,13.822,13.822,0,0,0-7.063,1.75c-2.114,1.148-4.584,3.493-7.94,2.583a7.909,7.909,0,0,1-4.129-2.469l-11.485-14.321Z" transform="translate(-95.222 -741.522)" fill="#fff"/>
      <path id="Trazado_105" data-name="Trazado 105" d="M141.938,1007.069a6.293,6.293,0,0,1-1.652-.224,8.413,8.413,0,0,1-4.424-2.67L124.389,989.87a.545.545,0,0,1,.111-.787l8.918-6.279a.554.554,0,0,1,.419-.089.545.545,0,0,1,.354.24l8.587,13.367,3.519-2.386a11.758,11.758,0,0,1,8.72-1.85c.156.02,4.432.6,6.356,2.156,1.617,1.305,2.374,2.618,2.25,3.9-.119,1.227-1.071,2.372-2.682,3.224a9.38,9.38,0,0,1-5.589,1.159,13.407,13.407,0,0,0-6.725,1.69c-.412.223-.844.5-1.3.789a10.151,10.151,0,0,1-5.39,2.065M125.6,989.641l11.121,13.867a7.481,7.481,0,0,0,3.846,2.284c2.443.662,4.424-.6,6.171-1.709.474-.3.921-.586,1.366-.827a14.182,14.182,0,0,1,7.4-1.811,8.3,8.3,0,0,0,4.924-1.043c.739-.391,2-1.218,2.106-2.365.087-.895-.536-1.887-1.849-2.947-1.689-1.363-5.8-1.922-5.839-1.927a10.685,10.685,0,0,0-7.94,1.676l-3.982,2.7a.546.546,0,0,1-.765-.157l-8.581-13.358Z" transform="translate(-93.56 -739.861)"/>
      <path id="Trazado_106" data-name="Trazado 106" d="M76.079,922.495l7.231,14.667L61.169,954.846s-7.79-16.238-8.554-21.626Z" transform="translate(-39.613 -694.53)" fill="#fff"/>
      <path id="Trazado_107" data-name="Trazado 107" d="M59.507,953.728a.547.547,0,0,1-.492-.31c-.319-.666-7.835-16.376-8.6-21.784a.546.546,0,0,1,.313-.573L74.19,920.335a.545.545,0,0,1,.716.255l7.231,14.667a.546.546,0,0,1-.149.667L59.848,953.608a.545.545,0,0,1-.341.119M51.559,931.88c.925,4.965,6.761,17.51,8.146,20.446l21.26-16.98-6.8-13.8Z" transform="translate(-37.951 -692.867)"/>
      <path id="Trazado_108" data-name="Trazado 108" d="M185.03,789.875,152.98,765.147s-3.508,5.335-9.254,5.912c-4.886.49-16.443-10.65-19.8-14a12.707,12.707,0,0,0-7.144-4.239c-4.495-.916-11.364-3.36-21.13-2.531,0,0-.047,0-.136.012a49.973,49.973,0,0,0-5.544.808c-13.488,2.258-46.8,9.725-53.108,29.092-4.632,14.211-.174,27.895-.174,27.895l29.952-14.463-.448-1.082a6.963,6.963,0,0,1,3.147-8.8l4.591-2.458c1.057,5.782,1.926,11.865.942,17.022-3.639,19.073-7.814,25.312-9.9,40.951,0,0,7.213-1.695,12.451-1.356l49.357,1.888a6.307,6.307,0,0,0,6.52-5.573c.516-4.584.528-12.7-1.367-26.942-.246-1.849-.4-4.785-.581-8.375,10.085,6.071,28.5,10.784,53.67-9.033" transform="translate(-26.172 -564.753)" fill="#fdfcff"/>
      <path id="Trazado_109" data-name="Trazado 109" d="M125.415,838.688q-.131,0-.263-.005L75.8,836.8c-5.111-.33-12.234,1.325-12.306,1.341a.546.546,0,0,1-.665-.6,118.591,118.591,0,0,1,4.687-20.29,191.667,191.667,0,0,0,5.215-20.691c.916-4.8.181-10.538-.81-16.085l-3.93,2.1a6.4,6.4,0,0,0-2.9,8.113l.448,1.082a.546.546,0,0,1-.267.7L35.315,806.929a.545.545,0,0,1-.756-.323c-.045-.138-4.459-14.018.174-28.233C41.111,758.8,74.3,751.251,88.27,748.912a50.586,50.586,0,0,1,5.587-.813l.125-.015c.024,0,.048,0,.072,0a53.836,53.836,0,0,1,18.384,1.885c1.022.25,1.987.485,2.841.659a13.308,13.308,0,0,1,7.451,4.421c6.913,6.9,15.641,14.184,19.327,13.808,5.425-.544,8.819-5.617,8.853-5.668a.545.545,0,0,1,.789-.132l32.049,24.728a.546.546,0,0,1,0,.861c-11.288,8.888-22.323,13.712-32.8,14.34a36.635,36.635,0,0,1-20.616-4.756c.166,3.245.31,5.7.526,7.323,1.588,11.932,2.048,21.042,1.368,27.075a6.875,6.875,0,0,1-6.819,6.062M74.33,835.659c.518,0,1.028.014,1.521.046l49.343,1.887a5.778,5.778,0,0,0,5.957-5.089c.46-4.087.6-12.056-1.366-26.809-.244-1.832-.4-4.645-.585-8.42a.545.545,0,0,1,.826-.495c10.68,6.429,28.431,10.12,52.5-8.563l-31.046-23.954c-1.036,1.366-4.346,5.18-9.314,5.678-.117.012-.239.018-.363.018-5.118,0-15.551-9.855-19.874-14.173a12.257,12.257,0,0,0-6.867-4.091c-.875-.178-1.85-.417-2.882-.668a52.789,52.789,0,0,0-18.092-1.853l-.042,0-.078.009a49.864,49.864,0,0,0-5.5.8c-13.794,2.31-46.5,9.726-52.7,28.727-3.979,12.209-1.121,24.174-.351,26.955l28.909-13.959-.251-.606a7.484,7.484,0,0,1,3.393-9.493l4.591-2.458a.546.546,0,0,1,.794.383c1.074,5.877,1.932,12.031.941,17.222a192.544,192.544,0,0,1-5.241,20.8A119.182,119.182,0,0,0,64.011,836.9a54.913,54.913,0,0,1,10.319-1.245" transform="translate(-24.557 -563.092)"/>
      <path id="Trazado_110" data-name="Trazado 110" d="M420.894,883.809a.545.545,0,0,1-.54-.472l-.812-5.957c-.688-5.045-1.219-10.627-1.494-15.717l-.262-4.857a.546.546,0,1,1,1.09-.059l.262,4.857c.274,5.061.8,10.612,1.485,15.629l.812,5.957a.545.545,0,0,1-.467.614.513.513,0,0,1-.075.005" transform="translate(-314.543 -644.641)"/>
      <path id="Trazado_111" data-name="Trazado 111" d="M267.672,686.476l-1.917,15.93,9.917,3.056s-14.17,9.8-31.441-.082l9.323-3.983,4.807-18.486Z" transform="translate(-183.877 -514.152)" fill="#fff"/>
      <path id="Trazado_112" data-name="Trazado 112" d="M258.414,708.646a32.084,32.084,0,0,1-16.116-4.454.545.545,0,0,1,.057-.975l9.076-3.877,4.74-18.227a.546.546,0,0,1,.723-.372l9.31,3.564a.545.545,0,0,1,.347.575l-1.862,15.478,9.482,2.922a.546.546,0,0,1,.15.97,30.529,30.529,0,0,1-15.907,4.4m-14.6-4.865a30.088,30.088,0,0,0,28.87.18l-8.749-2.7a.545.545,0,0,1-.381-.586l1.866-15.508-8.343-3.194-4.654,17.9a.545.545,0,0,1-.314.365Z" transform="translate(-182.216 -512.49)"/>
      <path id="Trazado_113" data-name="Trazado 113" d="M286.3,656.428s-3.558,1.342-4.5-1.749a2.014,2.014,0,0,1,2.129-2.9s-3.266-6.776,1.812-7.436a29.966,29.966,0,0,0,8.786-2.538s3.691,6.464,4.877,11.882c.715,3.267.519,6.155-1.948,7.015-6.753,2.354-11.159-4.277-11.159-4.277" transform="translate(-212.032 -483.206)" fill="#fff"/>
      <path id="Trazado_114" data-name="Trazado 114" d="M292.932,660.091c-4.526,0-7.638-3.568-8.5-4.69a4.7,4.7,0,0,1-3.154-.159,3.222,3.222,0,0,1-1.655-2.067,2.81,2.81,0,0,1,.261-2.664,2.6,2.6,0,0,1,1.592-.874c-.491-1.267-1.3-3.923-.315-5.738a3.532,3.532,0,0,1,2.853-1.756,29.705,29.705,0,0,0,8.61-2.483.545.545,0,0,1,.72.216c.152.267,3.746,6.6,4.936,12.036.923,4.22.149,6.792-2.3,7.647a9.205,9.205,0,0,1-3.045.533m-8.295-5.87a.548.548,0,0,1,.455.243c.171.256,4.26,6.248,10.525,4.065,1.844-.643,2.381-2.79,1.595-6.383a49.609,49.609,0,0,0-4.573-11.287,31.173,31.173,0,0,1-8.486,2.367,2.476,2.476,0,0,0-2.034,1.192c-1.039,1.916.627,5.431.643,5.466a.546.546,0,0,1-.039.541.54.54,0,0,1-.487.24,1.986,1.986,0,0,0-1.5.527,1.83,1.83,0,0,0-.071,1.668,2.147,2.147,0,0,0,1.089,1.4,3.956,3.956,0,0,0,2.694-.006.545.545,0,0,1,.191-.034" transform="translate(-210.368 -481.544)"/>
      <path id="Trazado_115" data-name="Trazado 115" d="M422.3,1551.1s-6.453,18.39-20,30-14.841,22.907-13.228,25.488c0,0,9.18,2.53,8.2,6.141s-14.28,4.1-15.921-1.149-.776-30.471-.821-36.274c-.072-9.324,5.252-25.441,21.83-27.575S422.3,1551.1,422.3,1551.1" transform="translate(-286.349 -1164.896)" fill="#fff"/>
      <path id="Trazado_116" data-name="Trazado 116" d="M388.31,1614.375c-3.676,0-8.154-1.111-9.146-4.286-1.31-4.191-1.06-20.528-.91-30.29.042-2.729.075-4.884.065-6.142-.079-10.139,5.8-25.995,22.306-28.12,16.735-2.153,20.337,3.383,20.482,3.62a.545.545,0,0,1,.049.466c-.065.185-6.657,18.662-20.162,30.238-12.806,10.976-14.614,21.8-13.217,24.61,1.667.483,9.394,2.942,8.356,6.748-.571,2.094-4.174,3.092-7.492,3.153-.109,0-.22,0-.331,0m19.419-68.24a54.755,54.755,0,0,0-6.965.484c-15.805,2.035-21.43,17.279-21.354,27.03.01,1.271-.023,3.432-.065,6.167-.148,9.7-.4,25.924.861,29.948.788,2.521,4.793,3.58,8.415,3.517,3.333-.061,6.11-1.071,6.459-2.349.687-2.519-5.569-4.853-7.814-5.472a.545.545,0,0,1-.318-.237c-1.768-2.829-.441-14.382,13.336-26.191,12.377-10.609,18.866-27.149,19.741-29.493-.664-.745-3.642-3.4-12.3-3.4" transform="translate(-284.688 -1163.234)"/>
      <path id="Trazado_117" data-name="Trazado 117" d="M829.072,1477.793c.311-.267,11.227,10.792,3.462,34.705s-9.363,33.973-8.742,37.7,9.2,5.062,6.522,10.249c-1.891,3.667-13.668,3.03-15.693.177-1.434-2.02-2.268-9.114-2.07-18.218s1.583-31.271-2.771-37.208,19.292-27.4,19.292-27.4" transform="translate(-609.267 -1112.6)" fill="#fff"/>
      <path id="Trazado_118" data-name="Trazado 118" d="M821.289,1561.864c-3.592,0-7.508-.881-8.719-2.588-1.541-2.171-2.373-9.277-2.171-18.545.025-1.165.07-2.543.12-4.074.337-10.388.9-27.773-2.785-32.8-4.514-6.156,16.907-25.9,19.365-28.131l.011-.01a.6.6,0,0,1,.778,0c.6.4,3.417,3.346,5.121,9.42,1.445,5.153,2.347,13.823-1.563,25.864-8.172,25.17-9.254,34.253-8.722,37.442.214,1.286,1.649,2.317,3.168,3.408,2.276,1.636,5.109,3.673,3.3,7.18-1.083,2.1-4.5,2.644-6.448,2.781-.474.033-.962.05-1.456.05m6.207-85.025c-6.677,6.119-22.159,21.9-18.882,26.372,3.909,5.331,3.337,22.952,3,33.481-.05,1.526-.094,2.9-.119,4.062-.22,10.131.83,16.285,1.97,17.89,1,1.41,5.218,2.36,9.208,2.081,2.875-.2,4.952-1.023,5.555-2.193,1.284-2.49-.265-3.85-2.968-5.794-1.631-1.173-3.319-2.386-3.607-4.115-.8-4.812,2.145-17.582,8.761-37.958,7.063-21.755-1.416-32.232-2.913-33.827" transform="translate(-607.659 -1110.936)"/>
      <path id="Trazado_119" data-name="Trazado 119" d="M413.5,1281.036c-1.37.595-11.1,4.638-22.044,3.006-46.3-6.9-66.038-.783-68.138,0a24.089,24.089,0,0,0-2.476.9c-8.9-10.729.3-28.716,4.418-34.657,3.752-5.414,9.1-6.839,9.149-9.541a2.154,2.154,0,0,0-1.263-1.923c-2.878-1.408-14.262.255-22.343,19.426-8.2,19.463-1.7,29.152,2.806,33.785-3.27,6-5.5,16.688-3.047,35.993.969,7.617-1.993,13.906-7.447,19.1a5.877,5.877,0,0,0-1.813,3.545c-.836,6.92-3.1,28.21.273,30.973,4.04,3.306,14.03,1.81,15.279,1.322,2.5-.975,3.793-5.715-5.421-8.669a3.9,3.9,0,0,1-2.653-3.083c-.754-4.679-.8-14.968,10.939-22.405,10.536-6.677,16.685-16.911,19.578-22.883a7.586,7.586,0,0,1,7.7-4.234c38.7,4.477,34.6,18.626,63.776,18.155,30.53-.492,35.97-18.466,36.217-23.636.163-3.419,2.253-19.754,8.2-31l.842-1.394c3.8-6.242,5.318-6.128,10.322-4.154,14.772,5.827,15.461,4.552,18.272,3s10.07-9.551,7.831-11.616c-1.731-1.6-11.8-7.178-16.281-9.628a5.319,5.319,0,0,1-2.588-3.316,22.583,22.583,0,0,0-11.63-14.6c-6.249-3.1-15.868-2.967-21.2,1.921-2.662,2.439-20.359,32.625-27.256,35.617" transform="translate(-225.701 -932.397)" fill="#fdfcff"/>
      <path id="Trazado_120" data-name="Trazado 120" d="M308.3,1382.594c-3.178,0-6.666-.493-8.763-2.208-3.382-2.767-1.746-20.9-.469-31.461a6.448,6.448,0,0,1,1.978-3.875c5.713-5.437,8.163-11.706,7.282-18.631-2.064-16.22-1.081-28.318,2.92-35.97-7.8-8.267-8.692-19.734-2.641-34.089,5.7-13.526,12.836-17.9,16.581-19.3,3.059-1.146,5.365-.959,6.5-.4a2.7,2.7,0,0,1,1.569,2.423c-.031,1.627-1.539,2.769-3.449,4.213a24.546,24.546,0,0,0-5.8,5.628c-4.092,5.9-12.811,23.34-4.7,33.681.676-.281,1.256-.464,1.662-.591.186-.058.341-.106.459-.151.8-.3,20.155-7.222,68.409-.028,10.559,1.575,19.968-2.2,21.747-2.967,4.57-1.983,14.343-16.756,20.81-26.533,3.137-4.743,5.4-8.17,6.3-8.986,5.688-5.211,15.558-5.113,21.814-2.007a23.019,23.019,0,0,1,11.915,14.949,4.8,4.8,0,0,0,2.322,2.977c5.383,2.944,14.669,8.119,16.389,9.705a2.051,2.051,0,0,1,.574,1.861c-.4,3.287-6.093,9.3-8.511,10.633-.161.089-.315.177-.466.263-2.653,1.514-4.115,2.349-18.271-3.235-4.74-1.869-6-2.082-9.656,3.929l-.841,1.393c-6.047,11.426-7.995,27.962-8.127,30.743-.162,3.4-2.069,9.1-6.911,13.933-6.578,6.57-16.618,10.01-29.841,10.223-14.684.24-21.094-3.232-28.514-7.249-7.511-4.067-16.025-8.676-35.333-10.909a7.048,7.048,0,0,0-7.142,3.93c-2.76,5.7-9,16.274-19.778,23.106-11.222,7.113-11.516,16.748-10.692,21.858a3.369,3.369,0,0,0,2.281,2.65c6.525,2.091,7.577,4.916,7.623,6.414a3.418,3.418,0,0,1-2.17,3.283,28.208,28.208,0,0,1-7.06.8m21.1-145.284a11.14,11.14,0,0,0-3.826.769c-3.581,1.342-10.417,5.555-15.959,18.7-5.935,14.081-5.029,25.249,2.694,33.193a.545.545,0,0,1,.088.642c-4.047,7.425-5.051,19.424-2.984,35.663.928,7.289-1.633,13.87-7.612,19.56a5.355,5.355,0,0,0-1.647,3.216c-2.063,17.077-2.034,28.758.077,30.485,3.7,3.026,13.331,1.785,14.735,1.236a2.327,2.327,0,0,0,1.477-2.232c-.03-.974-.76-3.452-6.866-5.409a4.469,4.469,0,0,1-3.025-3.515c-.7-4.327-1-15.227,11.185-22.953,10.55-6.687,16.67-17.067,19.379-22.66a8.14,8.14,0,0,1,8.249-4.538c19.518,2.258,28.129,6.92,35.727,11.034,7.285,3.944,13.575,7.354,27.977,7.118,12.931-.208,22.717-3.541,29.088-9.9,6.085-6.079,6.559-12.5,6.592-13.212.134-2.821,2.112-19.6,8.268-31.229l.857-1.421c3.855-6.338,5.634-6.491,10.99-4.379,13.668,5.392,15.047,4.605,17.329,3.3.155-.088.313-.179.48-.27,2.22-1.224,7.612-6.977,7.955-9.809.078-.643-.154-.858-.231-.928-1.7-1.563-11.875-7.2-16.173-9.55a5.9,5.9,0,0,1-2.853-3.655,21.942,21.942,0,0,0-11.345-14.252c-5.8-2.878-15.321-3-20.592,1.835-.791.725-3.261,4.459-6.122,8.784-6.929,10.474-16.418,24.82-21.285,26.932-1.827.792-11.488,4.663-22.342,3.045-47.978-7.154-67.078-.323-67.867-.028-.132.049-.305.1-.514.169a16.352,16.352,0,0,0-1.928.713.547.547,0,0,1-.644-.149c-8.658-10.433-.914-27.663,4.39-35.316a25.461,25.461,0,0,1,6.036-5.876c1.739-1.315,3-2.266,3.016-3.363a1.608,1.608,0,0,0-.958-1.422,4.281,4.281,0,0,0-1.816-.325" transform="translate(-224.002 -930.725)"/>
      <path id="Trazado_121" data-name="Trazado 121" d="M764.56,1483.033c.311-.267,10.248,5.324,2.484,29.237s-8.385,39.442-7.764,43.168,9.2,5.062,6.522,10.249c-1.891,3.667-13.668,3.03-15.693.177-1.434-2.02-2.268-9.114-2.07-18.218s1.583-31.271-2.771-37.208,19.292-27.4,19.292-27.4" transform="translate(-560.697 -1116.542)" fill="#fff"/>
      <path id="Trazado_122" data-name="Trazado 122" d="M753.243,1584.045c-3.592,0-7.508-.881-8.719-2.588-1.541-2.171-2.372-9.277-2.171-18.546.022-.989.054-2.13.091-3.386.283-9.86.811-28.213-2.768-33.505a13.641,13.641,0,0,1-1.164-10.763.545.545,0,0,1,1.035.344,12.627,12.627,0,0,0,1.033,9.808c3.775,5.583,3.261,23.464,2.955,34.147-.036,1.253-.069,2.392-.09,3.378-.22,10.131.831,16.285,1.97,17.891,1,1.41,5.216,2.364,9.208,2.081,2.875-.2,4.952-1.023,5.555-2.193,1.284-2.49-.265-3.85-2.968-5.794-1.631-1.173-3.319-2.386-3.607-4.115-.556-3.335-.319-18.471,7.783-43.426,3.983-12.269,3.172-19.461,1.791-23.334a.546.546,0,0,1,1.028-.366c1.438,4.033,2.3,11.477-1.781,24.037-7.438,22.908-8.43,38.8-7.745,42.91.214,1.286,1.649,2.317,3.168,3.409,2.276,1.636,5.109,3.673,3.3,7.18-1.083,2.1-4.5,2.644-6.448,2.781-.474.034-.962.05-1.455.05" transform="translate(-555.556 -1131.82)"/>
      <path id="Trazado_123" data-name="Trazado 123" d="M842.5,1245.395s3.956-8.378-2.327-6.749-19.394,1.862-20.868,7.913,12.024,13.731,19.239,14.429-1.164-6.051,3.956-15.593" transform="translate(-616.753 -932.396)" fill="#fff"/>
      <path id="Trazado_124" data-name="Trazado 124" d="M837.8,1259.924c-.3,0-.621-.017-.977-.052-5.56-.538-14.8-5.078-18.39-10.124a6.078,6.078,0,0,1-1.327-4.977c1.2-4.919,9.257-6.222,15.732-7.269,2.064-.334,4.014-.649,5.53-1.042,1.7-.442,2.925-.237,3.628.612,1.6,1.934-.433,6.4-.67,6.9l-.012.025c-2.462,4.588-1.7,8.44-1.142,11.253.358,1.807.616,3.113-.151,3.961a2.822,2.822,0,0,1-2.219.717m2.146-22.6a5.307,5.307,0,0,0-1.3.194c-1.565.406-3.539.725-5.63,1.063-6.156,1-13.818,2.235-14.845,6.451a5.058,5.058,0,0,0,1.156,4.087c3.367,4.739,12.384,9.165,17.606,9.67,1.22.117,1.988.013,2.282-.311.4-.441.174-1.577-.11-3.016-.555-2.8-1.394-7.041,1.245-11.967.779-1.659,1.685-4.669.811-5.725a1.488,1.488,0,0,0-1.209-.446m.886,6.416h0Z" transform="translate(-615.087 -930.738)"/>
      <path id="Trazado_125" data-name="Trazado 125" d="M1269.335,233.014a.546.546,0,0,1-.546-.545v-3.36a.545.545,0,1,1,1.091,0v3.36a.545.545,0,0,1-.545.546" transform="translate(-955.248 -172.081)" fill="#cebcff"/>
      <path id="Trazado_126" data-name="Trazado 126" d="M1269.314,185.426a.546.546,0,0,1-.546-.545v-3.36a.546.546,0,1,1,1.091,0v3.36a.546.546,0,0,1-.545.546" transform="translate(-955.232 -136.253)" fill="#cebcff"/>
      <path id="Trazado_127" data-name="Trazado 127" d="M1289.68,212.667h-3.36a.546.546,0,0,1,0-1.091l3.36,0a.545.545,0,0,1,0,1.091" transform="translate(-968.037 -159.29)" fill="#cebcff"/>
      <path id="Trazado_128" data-name="Trazado 128" d="M1242.094,212.648h-3.36a.546.546,0,1,1,0-1.091h3.36a.546.546,0,0,1,0,1.091" transform="translate(-932.21 -159.277)" fill="#cebcff"/>
      <path id="Trazado_129" data-name="Trazado 129" d="M1349.26,246.27c.9-6.693,9.493-6.689,10.4,0-.9,6.693-9.493,6.689-10.4,0" transform="translate(-1015.834 -181.634)" fill="#cebcff"/>
      <path id="Trazado_130" data-name="Trazado 130" d="M1384.007,176.423c.594-4.406,6.249-4.4,6.847,0-.594,4.406-6.249,4.4-6.847,0" transform="translate(-1041.994 -130.339)" fill="#cebcff"/>
    </g>
  </g>
</svg>
