<svg xmlns="http://www.w3.org/2000/svg" xmlns:xlink="http://www.w3.org/1999/xlink" width="455" height="451" viewBox="0 0 455 451">
  <defs>
    <clipPath id="clip-path">
      <rect id="Rectángulo_32" data-name="Rectángulo 32" width="455" height="451" transform="translate(0 0.206)" fill="none"/>
    </clipPath>
  </defs>
  <g id="Grupo_7" data-name="Grupo 7" transform="translate(0 -0.206)">
    <g id="Grupo_7-2" data-name="Grupo 7" clip-path="url(#clip-path)">
      <path id="Trazado_132" data-name="Trazado 132" d="M770.808,491.971h232.368a11.551,11.551,0,0,0,11.573-11.53l-.014-322.628c-.168-8.64-4.345-13.6-11.56-13.6l-232.369.991a11.713,11.713,0,0,0-11.56,9.845l-.011,325.387a11.551,11.551,0,0,0,11.573,11.53" transform="translate(-572.037 -108.659)"/>
      <path id="Trazado_133" data-name="Trazado 133" d="M735.14,494.845h232.4a11.551,11.551,0,0,0,11.575-11.527l-.014-322.5c-.168-8.638-4.345-13.549-11.562-13.549h-232.4a11.5,11.5,0,0,0-11.562,11.723l-.008,324.325a11.551,11.551,0,0,0,11.575,11.527" transform="translate(-545.162 -110.959)" fill="#fdfcff"/>
      <path id="Trazado_134" data-name="Trazado 134" d="M965.868,493.719h-232.4a12.1,12.1,0,0,1-12.122-12.074l.007-324.325a12.275,12.275,0,0,1,4.715-9.786,12.149,12.149,0,0,1,7.394-2.485h232.4c7.522,0,11.936,5.134,12.11,14.086l.014,322.51a12.1,12.1,0,0,1-12.122,12.074M733.463,146.144a11.063,11.063,0,0,0-6.733,2.262,11.175,11.175,0,0,0-4.281,8.913l-.007,324.325a11,11,0,0,0,11.027,10.979h232.4A11,11,0,0,0,976.9,481.645l-.014-322.5c-.163-8.38-4.074-13-11.015-13Z" transform="translate(-543.491 -109.286)"/>
      <path id="Trazado_135" data-name="Trazado 135" d="M1019.012,150.3H1127.1a5.058,5.058,0,0,0,5.058-5.058V119.992a5.058,5.058,0,0,0-5.058-5.058H1019.012a5.058,5.058,0,0,0-5.058,5.058v25.254a5.058,5.058,0,0,0,5.058,5.058" transform="translate(-763.953 -86.596)" fill="#fff"/>
      <path id="Trazado_136" data-name="Trazado 136" d="M1125.431,149.178H1017.339a5.612,5.612,0,0,1-5.606-5.606V118.319a5.612,5.612,0,0,1,5.606-5.606h108.093a5.612,5.612,0,0,1,5.605,5.606v25.254a5.612,5.612,0,0,1-5.605,5.606m-108.093-35.371a4.516,4.516,0,0,0-4.511,4.511v25.254a4.516,4.516,0,0,0,4.511,4.511h108.093a4.516,4.516,0,0,0,4.511-4.511V118.319a4.516,4.516,0,0,0-4.511-4.511Z" transform="translate(-762.279 -84.922)"/>
      <path id="Trazado_137" data-name="Trazado 137" d="M1190.251,2.221a20.262,20.262,0,0,0-20.194,20.359V53.094a4.952,4.952,0,0,0,4.937,4.966h30.515a4.952,4.952,0,0,0,4.937-4.966V22.58a20.262,20.262,0,0,0-20.195-20.359m1.129,27.885a8.272,8.272,0,1,1,7.085-7.128,8.252,8.252,0,0,1-7.085,7.128" transform="translate(-881.567 -1.673)" fill="#fff"/>
      <path id="Trazado_138" data-name="Trazado 138" d="M1203.836,56.935h-30.514a5.506,5.506,0,0,1-5.485-5.514V20.907a20.743,20.743,0,1,1,41.484,0V51.421a5.506,5.506,0,0,1-5.485,5.514m-15.257-55.84a19.753,19.753,0,0,0-19.647,19.812V51.421a4.409,4.409,0,0,0,4.39,4.419h30.514a4.409,4.409,0,0,0,4.39-4.419V20.907a19.753,19.753,0,0,0-19.647-19.812m.064,27.953a8.707,8.707,0,0,1-6.183-2.561,8.833,8.833,0,0,1,5.042-15,8.726,8.726,0,0,1,7.316,2.488,8.833,8.833,0,0,1-5.04,15,9.017,9.017,0,0,1-1.134.072m1.065-.615h0Zm-1.075-15.926a7.9,7.9,0,0,0-.993.063,7.737,7.737,0,0,0-4.406,13.142,7.64,7.64,0,0,0,6.406,2.178,7.737,7.737,0,0,0,4.4-13.142,7.618,7.618,0,0,0-5.411-2.24" transform="translate(-879.894)"/>
      <path id="Trazado_139" data-name="Trazado 139" d="M1336.122,411.878c0,.971-1.079,3.236-2.8,3.236h-12.836c-1.726,0-3.452-1.186-5.879-1.186h-71.056a16.906,16.906,0,0,1-6.822-2.05c-1.618-1.079-1.78-1.348-1.78-2.05v-4.26c0-.647,1.941-1.348,1.941-2.481v-6.256c0-1.618,14.562-11.973,19.2-13.105s24.971-1.24,30.418-.755,17.15,6.256,24.539,11.7c7.928,0,16.449,1.992,20.17,4.232a10.04,10.04,0,0,1,4.908,7.687Z" transform="translate(-930.456 -288.339)" fill="#ede6ff"/>
      <path id="Trazado_140" data-name="Trazado 140" d="M1282.155,472.555h-18.2a8.377,8.377,0,0,1-1.319-.133.547.547,0,0,1-.45-.447,10.417,10.417,0,1,1,20.5.131.547.547,0,0,1-.538.448M1263.21,471.4a5.993,5.993,0,0,0,.749.059h17.73a9.322,9.322,0,1,0-18.479-.059" transform="translate(-950.867 -346.419)"/>
      <path id="Trazado_141" data-name="Trazado 141" d="M1540.406,473.742h-4.714a8.733,8.733,0,0,1-2.6-.543,10.572,10.572,0,0,0-3.279-.643H1521.3a.547.547,0,0,1-.538-.448,10.416,10.416,0,1,1,20.168,1.253.547.547,0,0,1-.522.382m-18.642-2.281h8.049a11.6,11.6,0,0,1,3.607.694,7.851,7.851,0,0,0,2.272.493h4.3a9.324,9.324,0,1,0-18.232-1.186" transform="translate(-1145.667 -346.419)"/>
      <path id="Trazado_142" data-name="Trazado 142" d="M1596.722,452.942a2.486,2.486,0,0,1,1.361.947,4.883,4.883,0,0,1,.614,1.038c.189.566,0,1.214-.782,1.214h-4.584c-.728,0-2.076-1.105-2.831-2s-1.888-2.346-1.564-2.535c.3-.176,3.966.282,7.787,1.332" transform="translate(-1197.124 -340.233)"/>
      <path id="Trazado_143" data-name="Trazado 143" d="M1621.477,491.848a1.835,1.835,0,0,1,1.46-.97h3.721v2.508a2.987,2.987,0,0,1-.24,1.025h-5.261c-.536,0-.752-.435-.482-.971Z" transform="translate(-1220.993 -369.847)"/>
      <path id="Trazado_144" data-name="Trazado 144" d="M1436.546,404.667c.471.368,1,1.375,0,1.429s-20.414-.7-21.331-.715a1.291,1.291,0,0,1-1.348-1.173c-.162-.62-1.294-6.283-1.348-6.768s-.054-.944.782-.944,7.281.243,10.894,1.4a43.5,43.5,0,0,1,12.351,6.768" transform="translate(-1064.233 -298.736)" fill="#130052"/>
      <path id="Trazado_145" data-name="Trazado 145" d="M1333.546,397.025s.243,6.418.243,6.741a.789.789,0,0,1-.782.863c-.62,0-20.251-.458-21.061-.485s-1.186-.3-1.052-.863,4.531-5.905,8.144-6.849,13.025-.4,13.483-.4a.934.934,0,0,1,1.025,1" transform="translate(-987.659 -298.267)" fill="#130052"/>
      <path id="Trazado_146" data-name="Trazado 146" d="M1265.117,396.264c1.139.327,2.531,2.365,1.333,3.046a48.415,48.415,0,0,0-4.881,3.964,3.886,3.886,0,0,1-2.7,1.375h-5.579a121.767,121.767,0,0,1,11.824-8.385" transform="translate(-944.28 -298.561)"/>
      <path id="Trazado_147" data-name="Trazado 147" d="M1242.8,447.76v-5.771h4.611c.674,0,1.025.256.674,1.22a16.944,16.944,0,0,1-2.562,3.93,2.421,2.421,0,0,1-1.537.674H1242.8c0-.018.006-.036.006-.054" transform="translate(-936.371 -333.012)" fill="#130052"/>
      <path id="Trazado_148" data-name="Trazado 148" d="M1318.807,413.994a8.754,8.754,0,0,1-2.6-.543,10.577,10.577,0,0,0-3.279-.643h-71.055a17.4,17.4,0,0,1-7.126-2.142c-1.617-1.078-2.024-1.486-2.024-2.5V403.9c0-.541.474-.921.975-1.323.43-.345.967-.775.967-1.158v-6.257c0-2.274,15.518-12.636,19.617-13.637,4.66-1.137,25.067-1.261,30.6-.768,4.525.4,12.627,4.187,18.65,7.758a33.488,33.488,0,0,0,12.858,4.411c5.543.718,10.691,2.19,13.436,3.842a10.6,10.6,0,0,1,5.174,8.156v5.285a4.651,4.651,0,0,1-1.648,3.152,2.644,2.644,0,0,1-2.227.578l-11.631,0a4,4,0,0,1-.682.057m-84.988-10.05v4.217c0,.426,0,.569,1.536,1.594a16.549,16.549,0,0,0,6.519,1.958h71.055a11.594,11.594,0,0,1,3.607.694,5.942,5.942,0,0,0,2.8.444.574.574,0,0,1,.1-.009l11.738,0a.542.542,0,0,1,.122.014,1.56,1.56,0,0,0,1.365-.353,3.589,3.589,0,0,0,1.235-2.3v-5.285a9.576,9.576,0,0,0-4.643-7.218c-2.623-1.579-7.609-2.995-13.012-3.694a34.575,34.575,0,0,1-13.274-4.556c-7.11-4.215-14.42-7.274-18.189-7.609-5.48-.488-25.657-.377-30.239.741-4.563,1.115-18.338,11.04-18.787,12.62l0,6.211c0,.907-.763,1.52-1.377,2.012a3.571,3.571,0,0,0-.565.512" transform="translate(-928.783 -286.671)" fill="#130052"/>
      <path id="Trazado_149" data-name="Trazado 149" d="M1528.381,476.076a8.494,8.494,0,1,0,8.494-8.494,8.494,8.494,0,0,0-8.494,8.494" transform="translate(-1151.542 -352.295)"/>
      <path id="Trazado_150" data-name="Trazado 150" d="M1538.457,483.667a6.01,6.01,0,1,0,6.01-6.01,6.01,6.01,0,0,0-6.01,6.01" transform="translate(-1159.134 -359.886)" fill="#fff"/>
      <path id="Trazado_151" data-name="Trazado 151" d="M1269.834,476.076a8.494,8.494,0,1,0,8.494-8.494,8.494,8.494,0,0,0-8.494,8.494" transform="translate(-956.743 -352.295)"/>
      <path id="Trazado_152" data-name="Trazado 152" d="M1279.909,483.667a6.01,6.01,0,1,0,6.01-6.01,6.01,6.01,0,0,0-6.01,6.01" transform="translate(-964.334 -359.886)" fill="#fff"/>
      <path id="Trazado_153" data-name="Trazado 153" d="M1313.66,394.658h-103.2a6.678,6.678,0,0,1-6.67-6.67V338.157a6.677,6.677,0,0,1,6.67-6.669h103.2a6.677,6.677,0,0,1,6.67,6.669v49.831a6.678,6.678,0,0,1-6.67,6.67m-103.2-62.075a5.582,5.582,0,0,0-5.575,5.574v49.831a5.581,5.581,0,0,0,5.575,5.575h103.2a5.581,5.581,0,0,0,5.575-5.575V338.157a5.581,5.581,0,0,0-5.575-5.574Z" transform="translate(-906.983 -249.756)"/>
      <path id="Trazado_154" data-name="Trazado 154" d="M947.369,659.28H909.888a4.588,4.588,0,0,1,0-9.176h35.99a.548.548,0,0,1,0,1.1h-35.99a3.493,3.493,0,0,0,0,6.986h37.481a.547.547,0,0,1,0,1.095" transform="translate(-682.089 -489.814)"/>
      <path id="Trazado_155" data-name="Trazado 155" d="M1297.349,659.28h-62.475a.547.547,0,1,1,0-1.095h62.475a3.493,3.493,0,0,0,0-6.986h-62.01a.548.548,0,0,1,0-1.1h62.01a4.588,4.588,0,0,1,0,9.176" transform="translate(-929.99 -489.814)"/>
      <path id="Trazado_156" data-name="Trazado 156" d="M1386.751,736.417h-29.178a4.588,4.588,0,1,1,0-9.176h29.178a4.588,4.588,0,0,1,0,9.176m-29.178-8.081a3.493,3.493,0,1,0,0,6.986h29.178a3.493,3.493,0,0,0,0-6.986Z" transform="translate(-1019.392 -547.932)"/>
      <path id="Trazado_157" data-name="Trazado 157" d="M1049.448,819.6H909.888a4.588,4.588,0,0,1,0-9.176h139.56a4.588,4.588,0,0,1,0,9.176m-139.56-8.081a3.493,3.493,0,0,0,0,6.986h139.56a3.493,3.493,0,0,0,0-6.986Z" transform="translate(-682.089 -610.604)"/>
      <path id="Trazado_158" data-name="Trazado 158" d="M1431.443,896.738H1416.89a4.588,4.588,0,1,1,0-9.176h14.552a4.588,4.588,0,0,1,0,9.176m-14.552-8.081a3.493,3.493,0,1,0,0,6.986h14.552a3.493,3.493,0,0,0,0-6.986Z" transform="translate(-1064.084 -668.724)"/>
      <path id="Trazado_159" data-name="Trazado 159" d="M1398.385,975.761h-25.371a4.588,4.588,0,1,1,0-9.176h25.371a4.588,4.588,0,0,1,0,9.176m-25.371-8.081a3.493,3.493,0,1,0,0,6.986h25.371a3.493,3.493,0,0,0,0-6.986Z" transform="translate(-1031.026 -728.263)"/>
      <path id="Trazado_160" data-name="Trazado 160" d="M966.966,337.561h-51.23a4.588,4.588,0,1,1,0-9.176h51.23a4.588,4.588,0,1,1,0,9.176m-51.23-8.081a3.493,3.493,0,1,0,0,6.986h51.23a3.493,3.493,0,1,0,0-6.986Z" transform="translate(-686.495 -247.418)"/>
      <path id="Trazado_161" data-name="Trazado 161" d="M966.966,407.006h-51.23a4.588,4.588,0,1,1,0-9.176h51.23a4.588,4.588,0,1,1,0,9.176m-51.23-8.081a3.493,3.493,0,1,0,0,6.986h51.23a3.493,3.493,0,1,0,0-6.986Z" transform="translate(-686.495 -299.741)"/>
      <path id="Trazado_162" data-name="Trazado 162" d="M943.823,476.45H915.736a4.588,4.588,0,1,1,0-9.176h28.086a4.588,4.588,0,1,1,0,9.176m-28.086-8.081a3.493,3.493,0,1,0,0,6.986h28.086a3.493,3.493,0,1,0,0-6.986Z" transform="translate(-686.495 -352.063)"/>
      <path id="Trazado_163" data-name="Trazado 163" d="M1586.525,677.634h-15.933a5.8,5.8,0,0,1-5.8-5.8V655.9a5.8,5.8,0,0,1,5.8-5.8h15.933a5.8,5.8,0,0,1,5.8,5.8v15.934a5.8,5.8,0,0,1-5.8,5.8M1570.592,651.2a4.709,4.709,0,0,0-4.7,4.7v15.934a4.709,4.709,0,0,0,4.7,4.7h15.933a4.709,4.709,0,0,0,4.7-4.7V655.9a4.709,4.709,0,0,0-4.7-4.7Z" transform="translate(-1178.976 -489.814)"/>
      <path id="Trazado_164" data-name="Trazado 164" d="M1600.275,692.306a1.306,1.306,0,0,1-1.244-.9l-2.484-6.477a.547.547,0,0,1,1.022-.393l2.493,6.5a.224.224,0,0,0,.173.169.206.206,0,0,0,.188-.056l6.862-10.955a.548.548,0,0,1,.928.582l-6.887,10.993a.53.53,0,0,1-.041.056,1.309,1.309,0,0,1-1.011.478" transform="translate(-1202.874 -512.294)" fill="#130052"/>
      <path id="Trazado_165" data-name="Trazado 165" d="M1586.525,836.828h-15.933a5.8,5.8,0,0,1-5.8-5.8V815.1a5.8,5.8,0,0,1,5.8-5.8h15.933a5.8,5.8,0,0,1,5.8,5.8v15.933a5.8,5.8,0,0,1-5.8,5.8m-15.933-26.436a4.709,4.709,0,0,0-4.7,4.7v15.933a4.709,4.709,0,0,0,4.7,4.7h15.933a4.709,4.709,0,0,0,4.7-4.7V815.1a4.709,4.709,0,0,0-4.7-4.7Z" transform="translate(-1178.976 -609.756)"/>
      <path id="Trazado_166" data-name="Trazado 166" d="M1599.286,850.941a1.336,1.336,0,0,1-.251-.023,1.359,1.359,0,0,1-1.041-.912l-2.649-6.909a.547.547,0,0,1,1.022-.393l2.659,6.935a.276.276,0,0,0,.212.2.26.26,0,0,0,.235-.072l7.32-11.686a.548.548,0,0,1,.928.582l-7.344,11.723c-.013.02-.026.039-.041.057a1.361,1.361,0,0,1-1.05.5" transform="translate(-1201.968 -631.251)" fill="#130052"/>
      <path id="Trazado_167" data-name="Trazado 167" d="M1586.525,996.024h-15.933a5.8,5.8,0,0,1-5.8-5.8V974.292a5.8,5.8,0,0,1,5.8-5.8h15.933a5.8,5.8,0,0,1,5.8,5.8v15.934a5.8,5.8,0,0,1-5.8,5.8m-15.933-26.436a4.709,4.709,0,0,0-4.7,4.7v15.934a4.709,4.709,0,0,0,4.7,4.7h15.933a4.709,4.709,0,0,0,4.7-4.7V974.292a4.709,4.709,0,0,0-4.7-4.7Z" transform="translate(-1178.976 -729.701)"/>
      <path id="Trazado_168" data-name="Trazado 168" d="M1599.063,1010.011a1.369,1.369,0,0,1-1.3-.943l-2.687-7.006a.548.548,0,1,1,1.022-.393l2.7,7.032a.286.286,0,0,0,.22.211.267.267,0,0,0,.246-.076l7.423-11.849a.548.548,0,1,1,.928.582l-7.446,11.886a.5.5,0,0,1-.041.056,1.369,1.369,0,0,1-1.058.5" transform="translate(-1201.763 -750.975)" fill="#130052"/>
      <path id="Trazado_169" data-name="Trazado 169" d="M754.445,454.486l2.138,9.195A2.384,2.384,0,0,0,757.7,465.2l4.159,2.443a2.382,2.382,0,0,1,1.114,1.515l1.1,4.727a2.383,2.383,0,0,1-.375,1.915l-2.615,3.7a2.382,2.382,0,0,0-.375,1.915l.746,3.211a2.383,2.383,0,0,0,2.86,1.781,2.383,2.383,0,0,1,2.861,1.781l.674,2.9a2.383,2.383,0,0,1-1.781,2.861,2.382,2.382,0,0,0-1.781,2.86l.711,3.056a2.382,2.382,0,0,0,1.221,1.574l3.874,2.016a2.384,2.384,0,0,1,1.221,1.574l1.168,5.023a2.383,2.383,0,0,1-.357,1.889l-2.632,3.831a2.383,2.383,0,0,0-.357,1.889l1.014,4.36a2.383,2.383,0,0,0,1.666,1.751l7.786,2.224a2.383,2.383,0,0,0,2.26-.531l5.929-5.407a2.383,2.383,0,0,0,.715-2.3L772.8,450.218Z" transform="translate(-568.428 -339.212)" fill="#fff"/>
      <path id="Trazado_170" data-name="Trazado 170" d="M778.591,524.955a2.97,2.97,0,0,1-.812-.114l-7.786-2.225a2.931,2.931,0,0,1-2.049-2.154l-1.014-4.36a2.934,2.934,0,0,1,.438-2.323L770,509.948a1.842,1.842,0,0,0,.275-1.455l-1.168-5.024a1.832,1.832,0,0,0-.94-1.212l-3.875-2.017a2.922,2.922,0,0,1-1.5-1.935l-.711-3.057a2.929,2.929,0,0,1,2.19-3.517,1.838,1.838,0,0,0,1.372-2.2l-.674-2.9a1.836,1.836,0,0,0-2.2-1.372,2.93,2.93,0,0,1-3.517-2.19l-.747-3.21a2.932,2.932,0,0,1,.461-2.354l2.614-3.7a1.84,1.84,0,0,0,.289-1.475l-1.1-4.727a1.845,1.845,0,0,0-.859-1.167l-4.159-2.443a2.943,2.943,0,0,1-1.37-1.863l-2.139-9.195a.547.547,0,0,1,1.066-.248l2.138,9.195a1.845,1.845,0,0,0,.859,1.167l4.159,2.443a2.944,2.944,0,0,1,1.37,1.863l1.1,4.727a2.934,2.934,0,0,1-.461,2.355l-2.615,3.7a1.839,1.839,0,0,0-.289,1.475l.747,3.21a1.836,1.836,0,0,0,2.2,1.372,2.929,2.929,0,0,1,3.517,2.19l.674,2.9a2.933,2.933,0,0,1-2.19,3.517,1.836,1.836,0,0,0-1.372,2.2l.71,3.057a1.832,1.832,0,0,0,.941,1.211l3.874,2.017a2.923,2.923,0,0,1,1.5,1.935l1.168,5.024a2.936,2.936,0,0,1-.438,2.322L768.27,514.4a1.838,1.838,0,0,0-.275,1.455l1.014,4.36a1.835,1.835,0,0,0,1.284,1.348l7.786,2.224a1.821,1.821,0,0,0,1.741-.408l5.929-5.407a1.838,1.838,0,0,0,.551-1.772l-15.706-67.534a.547.547,0,1,1,1.066-.248l15.706,67.534a2.934,2.934,0,0,1-.879,2.829l-5.929,5.407a2.912,2.912,0,0,1-1.967.767" transform="translate(-566.755 -337.535)"/>
      <path id="Trazado_171" data-name="Trazado 171" d="M800.885,480.794l12.929,55.594a2.058,2.058,0,1,0,4.008-.932l-12.929-55.594a2.058,2.058,0,0,0-4.009.932" transform="translate(-603.378 -360.348)" fill="#130052"/>
      <path id="Trazado_172" data-name="Trazado 172" d="M690.5,270.64,679.06,273.3c-10.561,2.456-17.424,12.817-14.968,23.378l4.142,17.81a8.215,8.215,0,0,0,9.655,6.007l34.484-8.02a7.9,7.9,0,0,0,5.651-9.567L713.883,285.1A19.306,19.306,0,0,0,690.5,270.64m6.745,14.626a2.043,2.043,0,0,1-1.329,2.572l-14.125,3.285a2.359,2.359,0,0,1-2.69-1.637l-.334-1.435a5.186,5.186,0,0,1,4.1-6.073l8.049-1.872a4.866,4.866,0,0,1,6,3.725Z" transform="translate(-499.977 -203.514)" fill="#fff"/>
      <path id="Trazado_173" data-name="Trazado 173" d="M674.536,319.556a8.8,8.8,0,0,1-4.627-1.338,8.61,8.61,0,0,1-3.864-5.284L661.9,295.122a20.2,20.2,0,0,1,15.377-24.035l11.437-2.66a20.017,20.017,0,0,1,15.143,2.415,19.754,19.754,0,0,1,8.9,12.453l4.142,17.811a8.418,8.418,0,0,1-6.06,10.224l-34.484,8.019a8.033,8.033,0,0,1-1.822.207m14.429-50.063-11.437,2.66a19.5,19.5,0,0,0-12.03,8.414,18.442,18.442,0,0,0-2.529,14.307l4.142,17.811a7.668,7.668,0,0,0,9,5.6l34.484-8.019a7.324,7.324,0,0,0,5.242-8.91l-4.142-17.811a18.668,18.668,0,0,0-8.407-11.769,18.938,18.938,0,0,0-14.32-2.281M679.7,290.04a2.953,2.953,0,0,1-1.512-.435,2.73,2.73,0,0,1-1.277-1.675l-.334-1.435a5.3,5.3,0,0,1,.846-4.274,6.128,6.128,0,0,1,3.662-2.456l8.049-1.872a5.414,5.414,0,0,1,6.652,4.134l.334,1.435a2.99,2.99,0,0,1-.192,1.964,2.263,2.263,0,0,1-1.546,1.264l-14.125,3.285a2.464,2.464,0,0,1-.559.063m10.809-11.213a4.993,4.993,0,0,0-1.126.132l-8.049,1.872a5.107,5.107,0,0,0-3.011,2.015,4.222,4.222,0,0,0-.679,3.4l.334,1.436a1.634,1.634,0,0,0,.777.986,1.722,1.722,0,0,0,1.256.243l14.125-3.285a1.184,1.184,0,0,0,.806-.67,1.923,1.923,0,0,0,.114-1.244l-.334-1.435a4.264,4.264,0,0,0-4.212-3.448" transform="translate(-498.321 -201.834)"/>
      <path id="Trazado_174" data-name="Trazado 174" d="M674.9,165.008a26.031,26.031,0,0,1-6.892-17.576,25.615,25.615,0,1,1,16.741,24.052s-.165-.715,1.442-1.256l7.78-1.809,3.362-.879A20.449,20.449,0,1,0,673.2,147.424a21.094,21.094,0,0,0,6.4,14.987l-.175.069a19.393,19.393,0,0,0-4.527,2.528" transform="translate(-503.302 -91.763)" fill="#fff"/>
      <path id="Trazado_175" data-name="Trazado 175" d="M711.784,182.2a.547.547,0,0,1-.1-1.085,19.9,19.9,0,1,0-23.745-19.529,19.663,19.663,0,0,0,4.054,12.046.547.547,0,0,1-.869.665,20.746,20.746,0,0,1-4.279-12.711,20.995,20.995,0,1,1,25.049,20.6.547.547,0,0,1-.105.01" transform="translate(-517.492 -105.93)"/>
      <path id="Trazado_176" data-name="Trazado 176" d="M691.971,171.945a26.282,26.282,0,0,1-5.626-.606.547.547,0,0,1,.234-1.069,25.094,25.094,0,1,0-19.7-24.51,24.839,24.839,0,0,0,5.144,15.225.547.547,0,1,1-.869.665,25.922,25.922,0,0,1-5.37-15.89,26.186,26.186,0,1,1,26.186,26.186" transform="translate(-501.629 -90.091)"/>
      <path id="Trazado_177" data-name="Trazado 177" d="M453.75,1136.241l-1.832,4.4a23.207,23.207,0,0,1-14,13.063l-25.807,8.714H37.029l-22.632-6.94a15.651,15.651,0,0,1-11-13.6l-.952-10.893a9.572,9.572,0,0,1,.931-4.929,10.444,10.444,0,0,0,.935-6.088l-2.012-13.6a6.28,6.28,0,0,1,3.509-6.588l5.164-2.463a290.864,290.864,0,0,1,90.053-26.193l13.128-1.6,14.954-8.041a326.314,326.314,0,0,1,270.985-17.438l54.768,20.92-2.973,26.031,3.462,17.862a51.3,51.3,0,0,1,.937,9.761v4.967a32.918,32.918,0,0,1-2.532,12.66" transform="translate(-1.678 -770.437)" fill="#ede6ff"/>
      <path id="Trazado_178" data-name="Trazado 178" d="M769.819,1075.564a1.337,1.337,0,0,0-.147-2.432l-13.64-5.205c-78.311-29.887-184.329-28.733-259.4,28.824l183-6.338a619.582,619.582,0,0,0,63.493-5.477c10.671-1.482,21.8-6.807,26.691-9.371" transform="translate(-374.184 -790.031)" fill="#130052"/>
      <path id="Trazado_179" data-name="Trazado 179" d="M494.961,1095.665a.548.548,0,0,1-.333-.982c35.114-26.923,79.642-43.284,128.771-47.315,44-3.607,90.582,2.93,131.155,18.414l13.64,5.206a1.884,1.884,0,0,1,.207,3.428c-5.518,2.894-16.346,7.968-26.87,9.428a622.4,622.4,0,0,1-63.549,5.482l-183,6.338h-.019m151.47-48.276c-50.381,0-104.128,12.69-149.768,47.122l181.28-6.278a621.892,621.892,0,0,0,63.436-5.472c10.745-1.492,22.12-7.011,26.511-9.314a.789.789,0,0,0-.088-1.435l-13.64-5.206c-29.981-11.442-67.8-19.416-107.732-19.416" transform="translate(-372.511 -788.398)"/>
      <path id="Trazado_180" data-name="Trazado 180" d="M1702.016,1216.54s-6.867,6.2,30.163,4.041l2.99-26.215s-19.765,10.846-33.153,22.174" transform="translate(-1281.987 -899.882)" fill="#fff"/>
      <path id="Trazado_181" data-name="Trazado 181" d="M1716.755,1219.913c-10.6,0-16.408-1.107-17.33-3.311a1.942,1.942,0,0,1,.549-2.142l.013-.012c13.276-11.233,33.044-22.127,33.242-22.236a.547.547,0,0,1,.807.542l-2.99,26.215a.546.546,0,0,1-.511.484q-7.872.459-13.78.459m-16.05-4.638a.891.891,0,0,0-.267.911c.383.893,3.655,3.68,29.573,2.2l2.817-24.7c-4.064,2.292-20.574,11.815-32.123,21.584" transform="translate(-1280.311 -898.208)"/>
      <path id="Trazado_182" data-name="Trazado 182" d="M1712.532,1251.527c3.511,1.087,11.285,1.808,27.948.837l.936-8.205s1.674-10.75-7.77-6.7c-10.47,4.494-21.115,14.065-21.115,14.065" transform="translate(-1290.289 -931.664)" fill="#130052"/>
      <path id="Trazado_183" data-name="Trazado 183" d="M46.724,1495.571l338.7-6.443,76.046-8.828q-.159.412-.329.821l-1.832,4.4a23.2,23.2,0,0,1-14,13.059l-16.293,5.5a61.153,61.153,0,0,1-19.555,3.211H49.746a35.575,35.575,0,0,1-10.424-1.562l-17.537-5.374a15.632,15.632,0,0,1-9.752-8.687Z" transform="translate(-9.066 -1115.317)" fill="#ede6ff"/>
      <path id="Trazado_184" data-name="Trazado 184" d="M407.788,1506.161H48.074a36.1,36.1,0,0,1-10.585-1.586L19.952,1499.2a16.174,16.174,0,0,1-10.093-8.991.548.548,0,0,1,.563-.763l34.655,3.9,338.662-6.442,75.993-8.824a.542.542,0,0,1,.5.208.548.548,0,0,1,.078.532q-.162.419-.335.834l-1.832,4.4a23.755,23.755,0,0,1-14.328,13.367l-16.294,5.5a61.557,61.557,0,0,1-19.73,3.24m-396.51-15.516a15.084,15.084,0,0,0,9,7.509l17.538,5.375a35.01,35.01,0,0,0,10.264,1.538H407.788a60.473,60.473,0,0,0,19.38-3.183l16.294-5.5a22.661,22.661,0,0,0,13.668-12.751l1.814-4.356L383.812,1488l-338.751,6.446c-.021,0-.048,0-.072,0Z" transform="translate(-7.394 -1113.643)"/>
      <path id="Trazado_185" data-name="Trazado 185" d="M77.7,1310.829a.545.545,0,0,0-.25-.982,75.6,75.6,0,0,0-15.436-.368c-6.843.595-17.14,5.655-21.468,7.926a2.537,2.537,0,0,0-1.168,3.207l.291.712a3.768,3.768,0,0,0,3.489,2.345h9.232a23.734,23.734,0,0,0,14.009-4.576Z" transform="translate(-29.528 -986.433)" fill="#fff"/>
      <path id="Trazado_186" data-name="Trazado 186" d="M45.065,1317.357c4.38-2.292,14.582-7.287,21.377-7.878a68.971,68.971,0,0,1,7.681-.215l-8.206,5.779a24.043,24.043,0,0,1-10.769,4.188l-5.935.766a3.251,3.251,0,0,1-2.924-1.156Z" transform="translate(-33.954 -986.432)"/>
      <path id="Trazado_187" data-name="Trazado 187" d="M50.707,1322.552H41.475a4.3,4.3,0,0,1-4-2.686l-.292-.716a3.07,3.07,0,0,1,1.423-3.895l.091-.048c4.176-2.186,14.637-7.335,21.583-7.938a76.784,76.784,0,0,1,15.509.365,1.109,1.109,0,0,1,.515,2l-11.27,8.24a24.128,24.128,0,0,1-14.332,4.682m-11.5-6.375-.091.048a1.979,1.979,0,0,0-.917,2.511l.292.716a3.209,3.209,0,0,0,2.982,2h9.232a23.037,23.037,0,0,0,13.687-4.471l11.269-8.24a73.261,73.261,0,0,0-15.283-.386c-6.749.587-17.054,5.662-21.171,7.818" transform="translate(-27.844 -984.767)"/>
      <path id="Trazado_188" data-name="Trazado 188" d="M926.343,1258.814l33.411-1.036a19.391,19.391,0,0,0,9.98-3.132l1.922-1.252-33.567,1.006a19.39,19.39,0,0,0-11.746,4.414" transform="translate(-697.943 -944.356)" fill="#fff"/>
      <path id="Trazado_189" data-name="Trazado 189" d="M924.671,1257.688a.547.547,0,0,1-.348-.97,20.029,20.029,0,0,1,12.077-4.538l33.568-1.006a.542.542,0,0,1,.539.384.548.548,0,0,1-.223.622l-1.922,1.251a19.946,19.946,0,0,1-10.262,3.221l-33.411,1.036Zm43.38-5.361-31.618.948a18.951,18.951,0,0,0-10.048,3.265l31.68-.982a18.841,18.841,0,0,0,9.7-3.043Z" transform="translate(-696.271 -942.683)"/>
      <path id="Trazado_190" data-name="Trazado 190" d="M33.1,1455.759a2.8,2.8,0,0,1-.41-.03c-2.678-.393-9.02-2.35-10.056-12A4.621,4.621,0,0,1,25.464,1439c2.173-.9,7.114-1.3,10.877-1.478a2.839,2.839,0,0,1,2.173.867,2.772,2.772,0,0,1,.763,2.164,48.386,48.386,0,0,1-3.594,13.48,2.8,2.8,0,0,1-2.585,1.722m3.376-17.142-.082,0c-3.009.142-8.375.512-10.509,1.4a3.52,3.52,0,0,0-2.163,3.594c.92,8.572,6.113,10.594,9.127,11.037a1.709,1.709,0,0,0,1.825-1.032,47.279,47.279,0,0,0,3.513-13.155,1.653,1.653,0,0,0-.463-1.309,1.732,1.732,0,0,0-1.249-.533" transform="translate(-17.033 -1083.085)"/>
      <path id="Trazado_191" data-name="Trazado 191" d="M61.771,1456.773c.173.033.339.062.5.085a2.259,2.259,0,0,0,2.417-1.361,48.085,48.085,0,0,0,3.555-13.318,2.257,2.257,0,0,0-2.368-2.435c-.876.042-1.917.1-3.012.183l.006.046a44.6,44.6,0,0,1-.918,16.074Z" transform="translate(-46.541 -1084.758)"/>
      <path id="Trazado_192" data-name="Trazado 192" d="M219.421,1363.819a47.892,47.892,0,1,0-91.691,19.393l.775.237h86.72a47.72,47.72,0,0,0,4.2-19.63" transform="translate(-93.154 -991.471)" fill="#fff"/>
      <path id="Trazado_193" data-name="Trazado 193" d="M213.552,1382.324H126.831a.543.543,0,0,1-.16-.024l-.775-.238a.547.547,0,0,1-.34-.3,48.439,48.439,0,1,1,88.495.24.548.548,0,0,1-.5.323m-86.639-1.1H213.2a47.345,47.345,0,1,0-86.74-.14Z" transform="translate(-91.48 -989.798)"/>
      <path id="Trazado_194" data-name="Trazado 194" d="M1388.2,1363.759a47.911,47.911,0,1,0-91.628,19.63H1384a47.738,47.738,0,0,0,4.194-19.63" transform="translate(-973.724 -991.411)" fill="#fff"/>
      <path id="Trazado_195" data-name="Trazado 195" d="M1382.329,1382.265h-87.434a.547.547,0,0,1-.5-.323,48.459,48.459,0,1,1,88.433,0,.547.547,0,0,1-.5.323m-87.079-1.095h86.723a47.364,47.364,0,1,0-86.723,0" transform="translate(-972.052 -989.739)"/>
      <path id="Trazado_196" data-name="Trazado 196" d="M557,1190.8l7.291-8.786a5.4,5.4,0,0,1,4.155-1.951h6.49a5.4,5.4,0,0,1,5.367,4.807l.485,4.391a5.4,5.4,0,0,1-5.292,5.991c-6.958.1-23.657.27-23.3-.273a37.58,37.58,0,0,1,3.958-3.365,5.379,5.379,0,0,0,.841-.814" transform="translate(-416.045 -889.103)" fill="#fff"/>
      <path id="Trazado_197" data-name="Trazado 197" d="M595.468,1189.256l-.485-4.391a5.4,5.4,0,0,0-5.367-4.807h-6.49a5.4,5.4,0,0,0-4.155,1.951l-7.291,8.786a199.509,199.509,0,0,1,23.788-1.539" transform="translate(-430.726 -889.102)" fill="#fff"/>
      <path id="Trazado_198" data-name="Trazado 198" d="M570.006,1189.67a.548.548,0,0,1-.421-.9l7.292-8.786a5.928,5.928,0,0,1,4.576-2.149h6.49a5.94,5.94,0,0,1,5.911,5.294l.485,4.391a.549.549,0,0,1-.14.429.594.594,0,0,1-.415.178,201.045,201.045,0,0,0-23.709,1.535.567.567,0,0,1-.069,0m11.446-10.737a4.835,4.835,0,0,0-3.733,1.754l-6.416,7.73a197.6,197.6,0,0,1,21.879-1.39l-.417-3.774a4.846,4.846,0,0,0-4.823-4.319Z" transform="translate(-429.052 -887.429)"/>
      <path id="Trazado_199" data-name="Trazado 199" d="M557,1190.8l7.291-8.786a5.4,5.4,0,0,1,4.155-1.951h6.49a5.4,5.4,0,0,1,5.367,4.807l.485,4.391a5.4,5.4,0,0,1-5.292,5.991c-6.958.1-23.657.27-23.3-.273a37.58,37.58,0,0,1,3.958-3.365,5.379,5.379,0,0,0,.841-.814" transform="translate(-416.045 -889.103)" fill="#ede6ff"/>
      <path id="Trazado_200" data-name="Trazado 200" d="M560.59,1194.235c-10.185,0-10.359-.324-10.532-.64a.6.6,0,0,1,.028-.6,29.084,29.084,0,0,1,4.077-3.493,4.891,4.891,0,0,0,.755-.732l7.292-8.786a5.927,5.927,0,0,1,4.576-2.149h6.49a5.94,5.94,0,0,1,5.911,5.294l.485,4.391a5.985,5.985,0,0,1-.837,3.754,5.917,5.917,0,0,1-4.992,2.845c-5.673.078-9.982.112-13.255.112m-8.952-1.262c2.61.189,10.731.213,22.192.055a4.827,4.827,0,0,0,4.072-2.321,4.877,4.877,0,0,0,.683-3.063l-.485-4.391a4.846,4.846,0,0,0-4.823-4.319h-6.49a4.835,4.835,0,0,0-3.733,1.754l-7.292,8.786a5.949,5.949,0,0,1-.926.9c-1.579,1.228-2.6,2.076-3.2,2.6" transform="translate(-414.386 -887.43)"/>
      <path id="Trazado_201" data-name="Trazado 201" d="M400.691,1161.222H41.2a39.547,39.547,0,0,1-11.608-1.74l-17.037-5.224A16.132,16.132,0,0,1,1.17,1140.182l-.953-10.893a10.13,10.13,0,0,1,.984-5.215,9.858,9.858,0,0,0,.886-5.769L.075,1104.7a6.792,6.792,0,0,1,3.815-7.162l5.164-2.462a290.836,290.836,0,0,1,90.222-26.243l13.026-1.586,14.863-7.992a326.63,326.63,0,0,1,271.44-17.467l51.209,19.561a5.455,5.455,0,0,1,3.475,5.717l-2.531,22.163,3.446,17.779a51.954,51.954,0,0,1,.947,9.865v4.968a33.3,33.3,0,0,1-2.574,12.87l-.505-.211.505.211-1.832,4.4a23.758,23.758,0,0,1-14.328,13.37l-16.575,5.6a59.744,59.744,0,0,1-19.152,3.147M281.949,1021.344a325.577,325.577,0,0,0-154.265,38.877l-14.954,8.041a.543.543,0,0,1-.193.061l-13.128,1.6a289.758,289.758,0,0,0-89.883,26.144l-5.164,2.463a5.7,5.7,0,0,0-3.2,6.013l2.012,13.6a10.941,10.941,0,0,1-.984,6.406,9.032,9.032,0,0,0-.878,4.647l.952,10.888a15.042,15.042,0,0,0,10.618,13.124l17.037,5.224a38.458,38.458,0,0,0,11.288,1.692H400.691a58.648,58.648,0,0,0,18.8-3.089l16.575-5.6a22.664,22.664,0,0,0,13.668-12.755l1.831-4.4a32.213,32.213,0,0,0,2.489-12.449v-4.968a50.847,50.847,0,0,0-.927-9.656l-3.462-17.862a.546.546,0,0,1-.006-.166l2.541-22.246a4.361,4.361,0,0,0-2.778-4.57l-51.209-19.56a325.7,325.7,0,0,0-116.266-21.468" transform="translate(0 -768.696)"/>
      <path id="Trazado_202" data-name="Trazado 202" d="M1398.831,1379.567a42.738,42.738,0,1,1-42.738-42.738,42.738,42.738,0,0,1,42.738,42.738" transform="translate(-989.533 -1007.219)" fill="#130052"/>
      <path id="Trazado_203" data-name="Trazado 203" d="M1427.6,1422.328a28.745,28.745,0,1,1-28.745-28.745,28.745,28.745,0,0,1,28.745,28.745" transform="translate(-1032.294 -1049.98)" fill="#fff"/>
      <path id="Trazado_204" data-name="Trazado 204" d="M1397.18,1449.947a29.292,29.292,0,1,1,29.292-29.292,29.326,29.326,0,0,1-29.292,29.292m0-57.489a28.2,28.2,0,1,0,28.2,28.2,28.229,28.229,0,0,0-28.2-28.2" transform="translate(-1030.62 -1048.307)"/>
      <path id="Trazado_205" data-name="Trazado 205" d="M1439.27,1439.677a23.068,23.068,0,1,1-23.068-23.068,23.068,23.068,0,0,1,23.068,23.068" transform="translate(-1049.643 -1067.329)" fill="#ede6ff"/>
      <path id="Trazado_206" data-name="Trazado 206" d="M1414.529,1461.619A23.615,23.615,0,1,1,1438.144,1438a23.642,23.642,0,0,1-23.615,23.615m0-46.135a22.52,22.52,0,1,0,22.52,22.52,22.545,22.545,0,0,0-22.52-22.52" transform="translate(-1047.969 -1065.656)"/>
      <path id="Trazado_207" data-name="Trazado 207" d="M230.016,1379.567a42.738,42.738,0,1,1-42.738-42.738,42.738,42.738,0,0,1,42.738,42.738" transform="translate(-108.902 -1007.219)" fill="#130052"/>
      <path id="Trazado_208" data-name="Trazado 208" d="M258.784,1422.328a28.745,28.745,0,1,1-28.745-28.745,28.745,28.745,0,0,1,28.745,28.745" transform="translate(-151.663 -1049.98)" fill="#fff"/>
      <path id="Trazado_209" data-name="Trazado 209" d="M228.364,1449.947a29.292,29.292,0,1,1,29.292-29.292,29.326,29.326,0,0,1-29.292,29.292m0-57.489a28.2,28.2,0,1,0,28.2,28.2,28.229,28.229,0,0,0-28.2-28.2" transform="translate(-149.989 -1048.307)"/>
      <path id="Trazado_210" data-name="Trazado 210" d="M270.455,1439.677a23.067,23.067,0,1,1-23.068-23.068,23.068,23.068,0,0,1,23.068,23.068" transform="translate(-169.011 -1067.329)" fill="#ede6ff"/>
      <path id="Trazado_211" data-name="Trazado 211" d="M245.715,1461.619A23.615,23.615,0,1,1,269.33,1438a23.642,23.642,0,0,1-23.615,23.615m0-46.135a22.52,22.52,0,1,0,22.52,22.52,22.545,22.545,0,0,0-22.52-22.52" transform="translate(-167.339 -1065.656)"/>
      <path id="Trazado_212" data-name="Trazado 212" d="M1300.254,1683.509l-.667,12.3-8.22,1.386-.731-14.5Z" transform="translate(-972.415 -1267.804)" fill="#fff"/>
      <path id="Trazado_213" data-name="Trazado 213" d="M1289.693,1696.064a.548.548,0,0,1-.547-.52l-.731-14.5a.547.547,0,0,1,.167-.422.537.537,0,0,1,.427-.151l9.619.82a.547.547,0,0,1,.5.575l-.667,12.295a.546.546,0,0,1-.455.511l-8.221,1.386a.608.608,0,0,1-.091.007m-.153-14.45.669,13.26,7.182-1.211.615-11.327Z" transform="translate(-970.742 -1266.13)"/>
      <path id="Trazado_214" data-name="Trazado 214" d="M1282.425,1741.779a53.464,53.464,0,0,0,15.737-.235,3.7,3.7,0,0,0,2.857-4.693c-1.76-5.864-4.845-17-9.429-22l-.993,2.448-1.554-2.154a1.315,1.315,0,0,0-1.016-.615l-3.267-.248a1.314,1.314,0,0,0-1.4,1.1l-.092,1.474-2.192-2.128-.558,13a46.069,46.069,0,0,1-.862,6.982l-.576,3.087a3.692,3.692,0,0,0,3.341,3.981" transform="translate(-963.702 -1291.602)" fill="#fff"/>
      <path id="Trazado_215" data-name="Trazado 215" d="M1288.572,1741.133c-2.718,0-5.083-.222-6.945-.4l-.924-.086a4.252,4.252,0,0,1-3.839-4.571c0-.019,0-.038.007-.057l.576-3.086a45.33,45.33,0,0,0,.853-6.905l.558-13a.548.548,0,0,1,.928-.37l1.338,1.3.018-.288a1.868,1.868,0,0,1,1.986-1.616l3.266.248a1.865,1.865,0,0,1,1.439.871l.954,1.321.621-1.531a.548.548,0,0,1,.911-.164c4.357,4.755,7.371,14.893,9.172,20.95l.378,1.267a4.247,4.247,0,0,1-3.28,5.388,42.787,42.787,0,0,1-8.019.726m-10.618-4.939a3.153,3.153,0,0,0,2.846,3.365l.93.086a50.339,50.339,0,0,0,14.657-.313,3.152,3.152,0,0,0,2.435-4l-.379-1.269c-1.692-5.691-4.471-15.039-8.357-19.855l-.655,1.616a.548.548,0,0,1-.952.115l-1.554-2.154a.79.79,0,0,0-.613-.389l-3.267-.248a.774.774,0,0,0-.816.645l-.086,1.423a.548.548,0,0,1-.928.359l-1.316-1.277-.506,11.779a47.034,47.034,0,0,1-.87,7.059Z" transform="translate(-962.03 -1289.927)"/>
      <path id="Trazado_216" data-name="Trazado 216" d="M1296.341,1808.025a40.018,40.018,0,0,1-8.3-.839.547.547,0,0,1,.247-1.067c.086.02,8.674,1.961,16.662-.288a.548.548,0,0,1,.3,1.054,33.176,33.176,0,0,1-8.907,1.14" transform="translate(-970.143 -1360.568)"/>
      <path id="Trazado_217" data-name="Trazado 217" d="M1303.814,1774.1a.548.548,0,0,1-.01-1.095l7.764-.135a.547.547,0,1,1,.019,1.095l-7.764.135Z" transform="translate(-981.932 -1335.746)"/>
      <path id="Trazado_218" data-name="Trazado 218" d="M1135.614,1667.526l-.339,17.91-9.951.5-1.363-17.824Z" transform="translate(-846.836 -1256.379)" fill="#fff"/>
      <path id="Trazado_219" data-name="Trazado 219" d="M1123.65,1684.811a.547.547,0,0,1-.545-.506l-1.363-17.824a.548.548,0,0,1,.518-.589l11.653-.587a.532.532,0,0,1,.409.154.549.549,0,0,1,.166.4l-.34,17.91a.547.547,0,0,1-.519.537l-9.951.5h-.028m-.774-17.854,1.279,16.732,8.907-.45.319-16.812Z" transform="translate(-845.163 -1254.705)"/>
      <path id="Trazado_220" data-name="Trazado 220" d="M1064.779,1727.565a3.6,3.6,0,0,1-2.594,3.693c-5.653,1.62-18.391,5.234-22.039,5.967-4.735.951-10.672-.215-13.333-2.878s5.168-9.738,8.921-12.358c5.576-3.891,10.747-11.288,13.05-11.725s6.971,6.072,6.971,6.072l6.926-3.329a87.731,87.731,0,0,1,2.1,14.558" transform="translate(-773.234 -1288.564)" fill="#fff"/>
      <path id="Trazado_221" data-name="Trazado 221" d="M1035.042,1736.432c-4.087,0-8.194-1.271-10.289-3.367a2.434,2.434,0,0,1-.688-2.029c.314-3.548,6.659-9.054,9.683-11.165a54.4,54.4,0,0,0,7.651-7.068c2.486-2.609,4.282-4.495,5.61-4.746,2.311-.44,6.018,4.259,7.247,5.919l6.516-3.131a.548.548,0,0,1,.768.358,89.216,89.216,0,0,1,2.114,14.658,4.166,4.166,0,0,1-2.99,4.255c-5.412,1.551-18.4,5.238-22.082,5.978a18.088,18.088,0,0,1-3.539.339m12.318-27.313a.753.753,0,0,0-.147.013c-.981.187-2.944,2.246-5.021,4.426a55.244,55.244,0,0,1-7.818,7.21c-3.71,2.589-8.978,7.631-9.219,10.363a1.371,1.371,0,0,0,.372,1.159c2.476,2.479,8.116,3.678,12.838,2.729,3.645-.732,16.6-4.41,22-5.956a3.066,3.066,0,0,0,2.2-3.131,91.934,91.934,0,0,0-1.927-13.806l-6.313,3.034a.549.549,0,0,1-.682-.174c-1.79-2.495-4.852-5.867-6.277-5.867" transform="translate(-771.561 -1286.895)"/>
      <path id="Trazado_222" data-name="Trazado 222" d="M1047.678,1784.463a12.519,12.519,0,0,1-6.17-1.243.548.548,0,0,1,.554-.945c6.912,4.048,29.715-4.286,29.945-4.371a.548.548,0,0,1,.379,1.028c-.759.28-15.133,5.532-24.708,5.532" transform="translate(-784.509 -1339.516)"/>
      <path id="Trazado_223" data-name="Trazado 223" d="M1096.87,1747.212a.545.545,0,0,1-.345-.123l-5.291-4.31a.548.548,0,1,1,.692-.849l5.291,4.31a.547.547,0,0,1-.346.972" transform="translate(-822.026 -1312.346)"/>
      <path id="Trazado_224" data-name="Trazado 224" d="M1124.957,1187.129s5.9,55.639,8.482,74.818-1.241,50.411-1.241,50.411l-15.4-.033s-2.176-27.715-3.847-42.132a33.8,33.8,0,0,0-2.873-10.21c-2.332-5.081-5.988-13.834-7.662-22.031-2.56-12.542-10.117-32.176-10.117-32.176s-.294,99.911-.412,107.765c0,0-12.017,1.144-16.472-1.355,0,0-9.484-35.947-9.382-55.77s-3.581-68.876-3.581-68.876Z" transform="translate(-800.492 -894.43)" fill="#130052"/>
      <path id="Trazado_225" data-name="Trazado 225" d="M1084.129,1312.683c-3.729,0-8.221-.326-10.655-1.691a.548.548,0,0,1-.261-.338c-.1-.36-9.5-36.244-9.4-55.912.1-19.574-3.543-68.342-3.58-68.832a.548.548,0,0,1,.542-.589l62.506-.411h0a.547.547,0,0,1,.544.49c.059.557,5.926,55.85,8.48,74.8,2.565,19.029-1.2,50.238-1.24,50.551a.547.547,0,0,1-.543.481h0l-15.4-.033a.548.548,0,0,1-.545-.5c-.022-.277-2.194-27.87-3.845-42.111a33.224,33.224,0,0,0-2.827-10.045c-2.138-4.659-5.982-13.731-7.7-22.15-1.951-9.554-6.876-23.408-9.042-29.285-.05,16.721-.3,97.776-.4,104.774a.547.547,0,0,1-.5.537c-.231.022-2.9.268-6.137.268m-9.918-2.539c3.891,1.98,13.221,1.4,15.462,1.222.121-10.738.4-106.281.406-107.263a.548.548,0,0,1,1.059-.2c.075.2,7.6,19.82,10.142,32.262,1.7,8.311,5.5,17.3,7.624,21.912a34.313,34.313,0,0,1,2.919,10.375c1.529,13.2,3.506,37.82,3.809,41.648l14.408.031c.464-4.024,3.556-32.193,1.184-49.79-2.427-18.007-7.839-68.772-8.431-74.34l-61.425.4c.415,5.612,3.635,49.885,3.54,68.335-.1,18.7,8.5,52.283,9.3,55.4" transform="translate(-798.82 -892.757)" fill="#130052"/>
      <path id="Trazado_226" data-name="Trazado 226" d="M1285.236,1496.742a7.675,7.675,0,0,1-2.607-.453.547.547,0,0,1,.372-1.03,6.65,6.65,0,0,0,5.851-.677.548.548,0,0,1,.6.918,7.745,7.745,0,0,1-4.214,1.241" transform="translate(-966.111 -1126.01)"/>
      <path id="Trazado_227" data-name="Trazado 227" d="M1286.607,1231.178a.49.49,0,0,1-.058,0,8.2,8.2,0,0,1-7.162-6.985.548.548,0,1,1,1.073-.217,7.14,7.14,0,0,0,6.2,6.114.547.547,0,0,1-.057,1.092" transform="translate(-963.932 -921.858)"/>
      <path id="Trazado_228" data-name="Trazado 228" d="M1107.675,1544.562a.548.548,0,0,1-.546-.51c-.614-8.925-11.751-25.211-11.864-25.374a.548.548,0,0,1,.9-.62c.465.677,11.419,16.7,12.054,25.92a.548.548,0,0,1-.509.584h-.038" transform="translate(-825.143 -1143.585)"/>
      <path id="Trazado_229" data-name="Trazado 229" d="M877.416,841.94c-3.371-9.712-8.339-8.384-11.915-5.558a13.46,13.46,0,0,0-4.878,8.181,34.092,34.092,0,0,1-3.447,10.154c-3.716,6.768-17.454,9.492-22.246,9.473-2.091-.008-7.7-6.718-11.3-5.581-2.587.817,2.237,4.922,1.633,5.217-2.239,1.1-4.365.859-6.394.851-3.293-.014-6.234-.9-7.467-.912-1.56-.009-2.084,1.589-1.438,3.01.924,2.031,2.941,5.109,6.274,6.183,5.96,1.92,16.151.123,19.707-.568,2.708-.526,34.622,1.455,38.686-11.861.845-2.77,4.2-14.5,2.784-18.588" transform="translate(-610.055 -628.609)" fill="#fff"/>
      <path id="Trazado_230" data-name="Trazado 230" d="M821.405,872.678a23.553,23.553,0,0,1-7-.881c-3.87-1.247-5.908-4.945-6.6-6.477a2.991,2.991,0,0,1,.068-2.826,2.124,2.124,0,0,1,1.855-.958h.016a14.588,14.588,0,0,1,2.156.3,30.289,30.289,0,0,0,5.31.61c.3,0,.594.008.9.013a11.443,11.443,0,0,0,4.836-.619c-.146-.206-.351-.471-.519-.687-.914-1.178-2.053-2.645-1.7-3.767a1.514,1.514,0,0,1,1.086-.982c2.462-.782,5.576,1.574,8.074,3.465,1.356,1.027,2.759,2.088,3.392,2.091h.049c4.79,0,18.158-2.709,21.716-9.189a33.586,33.586,0,0,0,3.388-9.987,13.978,13.978,0,0,1,5.077-8.513c2.408-1.9,4.662-2.567,6.7-1.971,2.489.726,4.531,3.344,6.071,7.78,1.518,4.373-2.048,16.533-2.778,18.927-3.53,11.568-27.042,11.966-35.893,12.116-1.579.027-2.826.048-3.212.123a72.076,72.076,0,0,1-12.974,1.433m-11.687-10.047a1.038,1.038,0,0,0-.936.458,1.928,1.928,0,0,0,.009,1.777c.637,1.4,2.49,4.775,5.944,5.888,5.375,1.732,14.484.378,19.435-.584a30.262,30.262,0,0,1,3.4-.143c8.633-.146,31.567-.535,34.864-11.341.437-1.432,4.227-14.11,2.791-18.248-1.417-4.082-3.215-6.466-5.344-7.088-1.677-.491-3.6.108-5.715,1.779a12.889,12.889,0,0,0-4.678,7.849,34.7,34.7,0,0,1-3.5,10.321c-3.829,6.972-17.529,9.756-22.674,9.756h-.054c-1,0-2.344-1.023-4.048-2.313-2.3-1.739-5.157-3.9-7.084-3.295-.319.1-.357.224-.369.264-.18.577.927,2,1.522,2.771.666.857,1,1.287.9,1.722a.636.636,0,0,1-.342.43,11.627,11.627,0,0,1-5.76.92c-.294-.006-.587-.012-.877-.013a31.268,31.268,0,0,1-5.5-.628,14.514,14.514,0,0,0-1.966-.283Z" transform="translate(-608.385 -626.928)"/>
      <path id="Trazado_231" data-name="Trazado 231" d="M1087.878,785.137s2.14-32.818-17.36-39.952c-18.773-6.868-43.6-7.016-57,1.864-6.618,4.385-12.646,31.2-12.646,31.2l10.531,11.909s-.611,58.981,3,74.362c0,0,17.508,1.152,24.744-2.128s31.3-8.577,43.176-3.831l-5.863-74.339Z" transform="translate(-754.094 -557.691)" fill="#cebcff" stroke="#130052" stroke-width="1"/>
      <path id="Trazado_232" data-name="Trazado 232" d="M1147.176,1090.789a.589.589,0,0,1-.068,0c-28.5-3.568-37.76-22.824-37.851-23.019a.547.547,0,0,1,.993-.461c.088.189,9.12,18.9,36.993,22.394a.547.547,0,0,1-.067,1.091" transform="translate(-835.72 -803.91)" fill="#130052"/>
      <path id="Trazado_233" data-name="Trazado 233" d="M1007.117,906.359l29.688.951a1.367,1.367,0,0,0,1.34-1.8l-12.167-36.257a1.367,1.367,0,0,0-1.252-.931l-29.688-.952a1.367,1.367,0,0,0-1.34,1.8l12.167,36.257a1.367,1.367,0,0,0,1.252.932" transform="translate(-748.636 -653.51)" fill="#130052"/>
      <path id="Trazado_234" data-name="Trazado 234" d="M1035.179,906.183h-.062l-29.688-.951a1.922,1.922,0,0,1-1.754-1.3L991.509,867.67a1.914,1.914,0,0,1,.279-1.752,1.871,1.871,0,0,1,1.6-.771l29.688.951a1.922,1.922,0,0,1,1.754,1.3l12.167,36.256a1.914,1.914,0,0,1-1.815,2.524m-41.856-39.942a.819.819,0,0,0-.776,1.08l12.167,36.257a.824.824,0,0,0,.751.559l29.688.951a.819.819,0,0,0,.8-1.08l-12.167-36.256a.823.823,0,0,0-.751-.559l-29.688-.951Z" transform="translate(-746.967 -651.834)"/>
      <path id="Trazado_235" data-name="Trazado 235" d="M1139.868,913.542l-15.814-.713s-.119,13.317-1.546,13.555c-5.084.847-15.73.89-22.658.053a5.568,5.568,0,0,1-4.777-4.525,7.959,7.959,0,0,0-3.8-5.446c-2.394-1.473-.033,3.162-2.272,6.148-1.2,1.6-5.01.893-10.2-.31s-6.511,4.346-.692,7.7c6.309,3.635,10.318,3.227,12.33,3.653,4.007.848,39.441,6.4,44.91,3.429,4.226-2.3,4.518-23.543,4.518-23.543" transform="translate(-809.414 -687.761)" fill="#fff"/>
      <path id="Trazado_236" data-name="Trazado 236" d="M1126.827,936.827c-12.643,0-36.149-3.89-38.154-4.314-.4-.085-.915-.137-1.509-.2a24.786,24.786,0,0,1-10.98-3.517c-3.668-2.114-4.573-5.02-3.862-6.826.528-1.341,2.106-2.54,4.95-1.881,4.674,1.083,8.626,1.868,9.642.515a7.02,7.02,0,0,0,.969-4.361c-.009-1.07-.016-1.843.569-2.172a1.477,1.477,0,0,1,1.46.248,8.555,8.555,0,0,1,4.047,5.81,5.008,5.008,0,0,0,4.305,4.084c6.823.823,17.259.805,22.416-.035.662-.848,1.125-7.364,1.175-13.035a.546.546,0,0,1,.171-.392.516.516,0,0,1,.4-.15l15.815.714a.547.547,0,0,1,.523.554c-.03,2.207-.424,21.636-4.8,24.017-1.234.671-3.808.94-7.131.94m-51.044-15.821a2.409,2.409,0,0,0-2.442,1.368c-.544,1.383.284,3.686,3.39,5.476a23.8,23.8,0,0,0,10.544,3.376,16.186,16.186,0,0,1,1.625.216c4.083.863,39.295,6.331,44.536,3.483,3.141-1.707,4.1-16.362,4.224-22.539l-14.719-.664c-.018,1.1-.074,3.628-.231,6.15-.408,6.6-1.1,7.262-1.764,7.373-5.208.869-15.868.894-22.814.056a6.1,6.1,0,0,1-5.25-4.967,7.39,7.39,0,0,0-3.545-5.082,2.118,2.118,0,0,0-.319-.167,7.882,7.882,0,0,0-.04,1.15,8.015,8.015,0,0,1-1.188,5.027c-1.415,1.89-5.356,1.148-10.764-.1a5.53,5.53,0,0,0-1.242-.152" transform="translate(-807.761 -686.082)"/>
      <path id="Trazado_237" data-name="Trazado 237" d="M1106.456,612.017c1.621,1.34,4.736,2.92,7.046,1.606,1.72-.978,2.589-3.33,2.4-5.964a3.54,3.54,0,0,0,2.619-.8c1.125-1.1.808-3,.7-4.257-.505-5.794,2.822-6.855,1.8-10.752a9.375,9.375,0,0,0-3.8-5.108c-2.384-1.626-3.911-.985-7.822-1.8-6.581-1.374-6.929-4.163-11.209-3.96-.247.012-6.068.37-7.842,4.493-1.443,3.353.636,7.236,2.682,9.228,2.651,2.579,4.388,1.151,7.026,3.293,4.63,3.76,1.594,10.043,6.409,14.024" transform="translate(-821.143 -437.725)"/>
      <path id="Trazado_238" data-name="Trazado 238" d="M1101.671,629.463a12.968,12.968,0,0,0,3.064-5.381c1.531-6.3,7.256-7.468,7.849-1.335.158,1.633,6.133,1.247,5.51,3-1.624,4.574-1.725,3.37.969,4.89a2.254,2.254,0,0,1,.877.162,3,3,0,0,1,1.263,4.006,3.469,3.469,0,0,1-2.029,2.011l.357,7.079a6.542,6.542,0,0,0,4.366,5.843l2.439.856s-10.779,7.837-22.495.42l1.476-.753a7.627,7.627,0,0,0,4.158-6.937l-.057-1.384a5.926,5.926,0,0,1-2.187-.072c-3.211-.761-4.446-4.354-4.136-8.913l-1.4-1.27a1.52,1.52,0,0,1-.027-2.224" transform="translate(-829.688 -466.156)" fill="#fff"/>
      <path id="Trazado_239" data-name="Trazado 239" d="M1112.794,653.061a20.117,20.117,0,0,1-10.919-3.253.547.547,0,0,1,.044-.95l1.475-.753a7.122,7.122,0,0,0,3.86-6.44l-.033-.792a6.234,6.234,0,0,1-1.79-.142c-3.2-.757-4.856-4.11-4.572-9.218l-1.2-1.093a2.067,2.067,0,0,1-.037-3.024h0a12.515,12.515,0,0,0,2.91-5.114c.969-3.99,3.5-5.931,5.532-5.789,1.864.133,3.132,1.826,3.394,4.53.037.389,1.6.743,2.439.933,1.376.312,2.564.581,2.978,1.333a1.161,1.161,0,0,1,.064.972c-.237.666-.441,1.211-.609,1.659a6.583,6.583,0,0,0-.508,1.623,3.7,3.7,0,0,0,.624.329c.293.138.653.307,1.093.551a2.776,2.776,0,0,1,.936.2,3.543,3.543,0,0,1,1.565,4.719,4.069,4.069,0,0,1-1.97,2.164l.338,6.692a5.973,5.973,0,0,0,4,5.354l2.439.857a.547.547,0,0,1,.141.959,22.834,22.834,0,0,1-12.191,3.693m-9.5-3.676c9.017,5.163,17.387,1.261,20.116-.319l-1.369-.481a7.063,7.063,0,0,1-4.733-6.332l-.357-7.079a.547.547,0,0,1,.37-.546,2.939,2.939,0,0,0,1.7-1.7,2.462,2.462,0,0,0-.962-3.293,1.941,1.941,0,0,0-.666-.123.6.6,0,0,1-.274-.071c-.462-.26-.84-.439-1.144-.582-1.635-.77-1.45-1.261-.674-3.327.166-.443.368-.982.6-1.641.02-.057.013-.072.009-.077-.176-.321-1.431-.605-2.26-.793-1.561-.353-3.174-.719-3.287-1.9-.206-2.127-1.1-3.451-2.382-3.543-1.539-.11-3.574,1.592-4.391,4.955a13.59,13.59,0,0,1-3.218,5.647.973.973,0,0,0,.018,1.423l1.4,1.27a.549.549,0,0,1,.178.442c-.317,4.668,1.037,7.709,3.716,8.344a5.386,5.386,0,0,0,1.985.062.548.548,0,0,1,.623.519l.058,1.385a8.228,8.228,0,0,1-4.456,7.448Z" transform="translate(-828.015 -464.484)"/>
      <path id="Trazado_240" data-name="Trazado 240" d="M1132.85,698.319a.547.547,0,0,1-.109-1.084,8.846,8.846,0,0,0,5.779-4.134.547.547,0,0,1,.975.5,9.79,9.79,0,0,1-6.534,4.708.544.544,0,0,1-.111.011" transform="translate(-853.122 -521.985)"/>
      <path id="Trazado_241" data-name="Trazado 241" d="M504.364,1637.88l4.89,18.54a29.992,29.992,0,0,1,.76,11.368l-.979,7.833,24.7-4.03-3.191-2.351a29.083,29.083,0,0,1-11.045-16.692l-4.25-17.887Z" transform="translate(-380.008 -1231.618)" fill="#fff"/>
      <path id="Trazado_242" data-name="Trazado 242" d="M507.362,1674.5a.548.548,0,0,1-.543-.615l.979-7.833a29.315,29.315,0,0,0-.746-11.16l-4.89-18.541a.548.548,0,0,1,.374-.664l10.88-3.219a.547.547,0,0,1,.688.4l4.25,17.887a28.573,28.573,0,0,0,10.838,16.379l3.191,2.351a.548.548,0,0,1-.236.981l-24.7,4.03a.538.538,0,0,1-.088.007m-4.005-37.915,4.754,18.027a30.4,30.4,0,0,1,.774,11.575L508,1673.29l22.69-3.7-2.144-1.579A29.664,29.664,0,0,1,517.289,1651l-4.116-17.325Z" transform="translate(-378.335 -1229.944)"/>
      <path id="Trazado_243" data-name="Trazado 243" d="M513.307,1769.639c-.186-3.273-.231-9.79,1.9-13.878a1.6,1.6,0,0,1,2.019-.735l5.651,2.261a1.336,1.336,0,0,0,1.832-1.24v-.385a1.029,1.029,0,0,1,.975-1.028l4.868-.255a11.456,11.456,0,0,1,5.287.992c5.034,2.257,15.725,7.586,18.28,13.158a1.989,1.989,0,0,1-1.755,2.776c-4.413.2-15.579.548-36.927.366a2.154,2.154,0,0,1-2.133-2.032" transform="translate(-386.685 -1321.806)" fill="#fff"/>
      <path id="Trazado_244" data-name="Trazado 244" d="M525.231,1770.6c-3.446,0-7.259-.015-11.471-.051a2.708,2.708,0,0,1-2.674-2.549c-.2-3.5-.209-10,1.964-14.162a2.143,2.143,0,0,1,2.707-.99l5.65,2.26a.788.788,0,0,0,1.081-.731v-.386a1.577,1.577,0,0,1,1.494-1.574l4.868-.255a12.1,12.1,0,0,1,5.539,1.039c5.827,2.612,15.986,7.831,18.553,13.429a2.437,2.437,0,0,1-.146,2.318,2.571,2.571,0,0,1-2.082,1.233c-3.809.171-11.7.418-25.485.418m-13.052-2.662a1.611,1.611,0,0,0,1.591,1.516c21.04.179,32.148-.153,36.9-.366a1.478,1.478,0,0,0,1.2-.71,1.357,1.357,0,0,0,.085-1.291c-2.508-5.47-13.427-10.834-18.006-12.887a10.909,10.909,0,0,0-5.034-.944l-4.868.255a.482.482,0,0,0-.457.48v.386a1.883,1.883,0,0,1-2.583,1.748l-5.65-2.26a1.05,1.05,0,0,0-1.33.48c-2.052,3.929-2.035,10.2-1.842,13.593" transform="translate(-385.009 -1320.135)"/>
      <path id="Trazado_245" data-name="Trazado 245" d="M542.506,1806.7c-4.434,0-9.87-.1-16.352-.4a.547.547,0,1,1,.05-1.094c21.338.974,31.273-.143,31.371-.154a.538.538,0,0,1,.607.48.547.547,0,0,1-.48.607,151.085,151.085,0,0,1-15.2.56" transform="translate(-396.031 -1359.991)"/>
      <path id="Trazado_246" data-name="Trazado 246" d="M589.237,1770.272a.544.544,0,0,1-.3-.09l-8.4-5.511a.547.547,0,0,1,.6-.915l8.4,5.511a.548.548,0,0,1-.3,1.005" transform="translate(-437.211 -1328.815)"/>
      <path id="Trazado_247" data-name="Trazado 247" d="M269.149,1660.424l-2.986,20.965H258.6l.735-20.62Z" transform="translate(-194.843 -1251.028)" fill="#fff"/>
      <path id="Trazado_248" data-name="Trazado 248" d="M264.49,1680.261h-7.559a.547.547,0,0,1-.547-.567l.735-20.619a.547.547,0,0,1,.528-.528l9.81-.346a.533.533,0,0,1,.427.18.549.549,0,0,1,.135.443l-2.987,20.966a.547.547,0,0,1-.542.47m-6.991-1.095h6.517l2.827-19.848-8.648.305Z" transform="translate(-193.17 -1249.353)"/>
      <path id="Trazado_249" data-name="Trazado 249" d="M236.738,1750.321a45.46,45.46,0,0,1-14.052.063,3.292,3.292,0,0,1-2.627-4.148c1.4-4.978,4.331-14.168,8.042-18.984a.554.554,0,0,1,.961.163l.132.866a.532.532,0,0,0,1.007.147l.817-1.73a1.173,1.173,0,0,1,.9-.565l2.87-.11a1.173,1.173,0,0,1,1.264.965l.1,1.365a.532.532,0,0,0,1,.215l1.237-1.27a.431.431,0,0,1,.779.267l-.147,5.448a59.348,59.348,0,0,0,.853,11.752l.339,1.951c.177,1.8-1.67,3.412-3.468,3.6" transform="translate(-165.707 -1300.45)" fill="#fff"/>
      <path id="Trazado_250" data-name="Trazado 250" d="M227.53,1749.787a41.564,41.564,0,0,1-6.6-.539,3.808,3.808,0,0,1-2.6-1.71,3.864,3.864,0,0,1-.465-3.126c1.425-5.066,4.376-14.293,8.135-19.171a1.1,1.1,0,0,1,1.913.321.521.521,0,0,1,.023.095l.132.865.788-1.734a1.747,1.747,0,0,1,1.341-.876l2.9-.112a1.722,1.722,0,0,1,1.825,1.417.529.529,0,0,1,.006.055l.1,1.365c.024-.044.025-.091.06-.127l1.216-1.249a.979.979,0,0,1,1.739.642l-.147,5.449a58.921,58.921,0,0,0,.845,11.643l.339,1.951c.216,2.18-1.909,4.024-3.949,4.243-.391.042-.8.091-1.235.143a50.6,50.6,0,0,1-6.362.455m-.664-23.862c-3.652,4.728-6.547,13.8-7.95,18.783a2.768,2.768,0,0,0,.333,2.24,2.678,2.678,0,0,0,1.853,1.219,41.946,41.946,0,0,0,12.659.077c.438-.052.853-.1,1.249-.144,1.5-.161,3.128-1.51,2.981-3.007l-.333-1.911a60.058,60.058,0,0,1-.861-11.86l.139-5.146-1.024,1.052a1.079,1.079,0,0,1-1.98-.513l-.1-1.333a.621.621,0,0,0-.67-.491l-2.9.112a.622.622,0,0,0-.449.3l-.791,1.682a1.079,1.079,0,0,1-2.043-.3Zm8.2,22.72h0Z" transform="translate(-164.037 -1298.774)"/>
      <path id="Trazado_251" data-name="Trazado 251" d="M240.347,1807.415a26.209,26.209,0,0,1-6.666-.885.547.547,0,0,1,.278-1.059c7.124,1.872,12.07.037,12.12.017a.548.548,0,0,1,.39,1.024,18.453,18.453,0,0,1-6.121.9" transform="translate(-175.757 -1360.298)"/>
      <path id="Trazado_252" data-name="Trazado 252" d="M252.982,1778.977H246.05a.547.547,0,1,1,0-1.094h6.932a.547.547,0,1,1,0,1.094" transform="translate(-184.972 -1339.526)"/>
      <path id="Trazado_253" data-name="Trazado 253" d="M397.462,1095.2s9.911,64.016,10.305,79.3,6.754,61.545,6.754,61.545a33.884,33.884,0,0,1-17.5.912s-30.35-81.918-32.537-107.032,6.219-36.61,6.219-36.61Z" transform="translate(-274.343 -823.749)" fill="#130052"/>
      <path id="Trazado_254" data-name="Trazado 254" d="M297.044,1077.826s-33.594,102.583-34.144,144.283a50.707,50.707,0,0,1-18.046,0s-6.824-114.486,12.845-146.56Z" transform="translate(-183.62 -810.361)" fill="#130052"/>
      <path id="Trazado_255" data-name="Trazado 255" d="M311.653,1258.678a31.9,31.9,0,0,1-7.058-.773.549.549,0,0,1-.392-.344c-.181-.489-17.878-48.356-27.109-81.785-9.893,37.051-15.015,64.006-15.228,80.139a.547.547,0,0,1-.422.525c-.306.072-7.631,1.744-18.259.008a.548.548,0,0,1-.458-.508c-.055-.933-5.406-93.742,7.823-135.151a.547.547,0,0,1,1.043.334c-12.7,39.754-8.183,127.317-7.8,134.313a52.209,52.209,0,0,0,16.983.023c.306-16.6,5.639-44.242,15.853-82.187a.548.548,0,0,1,1.065.253l-.036.175c8.711,32.127,25.967,79.132,27.466,83.2a33.835,33.835,0,0,0,16.486-.817c-.657-4.822-6.328-46.819-6.7-61.156-.246-9.54-4.151-37.8-7.384-59.82a.548.548,0,0,1,.462-.621.541.541,0,0,1,.621.462c3.237,22.054,7.148,50.357,7.4,59.952.389,15.082,6.685,61.023,6.749,61.485a.547.547,0,0,1-.352.588,33.555,33.555,0,0,1-10.754,1.706" transform="translate(-182.038 -844.159)"/>
      <path id="Trazado_256" data-name="Trazado 256" d="M383.869,1278.258a.558.558,0,0,1-.134-.017.547.547,0,0,1-.4-.664l4.719-18.73a.547.547,0,1,1,1.062.267l-4.719,18.73a.547.547,0,0,1-.53.414" transform="translate(-288.809 -948.152)"/>
      <path id="Trazado_257" data-name="Trazado 257" d="M205.136,592.139c-2.116,12.151-14.454,25.2-26.865,23.474-2.026-.281-7.491-1.433-13.234-8.085-7.917,5.665-18.007,4.165-23.447-2.409-6.649-8.033-5.741-22.9,3.943-30.532-7.672-.064-9.734-3.015-10.344-4.177-3.593-6.852,5.894-22.88,14.748-22.905,3.268-.009,7.6,4.029,16.142,12.107,8.819,8.342,9.194,9.96,11.863,10.249,7.846.85,10.192-12.521,20.6-14,7.126-1.013,15.084,3.967,15.686,8.668.517,4.035-4.693,5.459-7.625,13.519-2.184,6-.494,8.508-1.467,14.093" transform="translate(-101.268 -412.511)" fill="#130052"/>
      <path id="Trazado_258" data-name="Trazado 258" d="M348.111,556.636c.607,1.859,0,7.126-2.793,8.038s-6.722-2.876-7.329-4.735,1.167-4.106,3.962-5.019,5.553-.144,6.16,1.715" transform="translate(-254.565 -417.81)" fill="#130052"/>
      <path id="Trazado_259" data-name="Trazado 259" d="M474.282,1104.153s3.113,20.782-.694,24.766c0,0-12.441-13.628-13.031-23.471Z" transform="translate(-347.002 -831.912)" fill="#ede6ff"/>
      <path id="Trazado_260" data-name="Trazado 260" d="M471.916,1127.792h-.006a.545.545,0,0,1-.4-.178c-.513-.562-12.579-13.885-13.174-23.807a.547.547,0,0,1,.5-.578l13.725-1.294a.547.547,0,0,1,.593.464c.128.86,3.107,21.094-.84,25.225a.545.545,0,0,1-.4.169m-12.442-23.524c.864,8.45,10.267,19.658,12.413,22.118,2.393-3.854,1.083-17.519.256-23.312Z" transform="translate(-345.329 -830.238)"/>
      <path id="Trazado_261" data-name="Trazado 261" d="M301.7,1095.764s-3.875,16.767-8.473,20.948-17.154-14.515-24.143-14.916-14.68,16.463-14.68,16.463,1.948-21.06,7.7-25.522Z" transform="translate(-191.677 -823.312)" fill="#ede6ff"/>
      <path id="Trazado_262" data-name="Trazado 262" d="M252.729,1117.135a.547.547,0,0,1-.545-.6c.081-.87,2.038-21.35,7.912-25.9a.558.558,0,0,1,.377-.113l39.594,3.026a.548.548,0,0,1,.492.669c-.16.691-3.967,16.982-8.638,21.23-2.86,2.6-7.814-1.963-13.059-6.8-4.166-3.838-8.474-7.807-11.484-7.979-6.525-.349-14.076,15.979-14.151,16.144a.548.548,0,0,1-.5.32m14.439-17.565c.091,0,.181,0,.273.008,3.4.195,7.855,4.3,12.162,8.266,4.653,4.286,9.465,8.717,11.581,6.79,3.929-3.573,7.407-16.992,8.158-20.047l-38.736-2.96c-4.094,3.453-6.192,16.009-6.969,21.909,2.536-4.8,8.1-13.967,13.531-13.967" transform="translate(-190.003 -821.639)"/>
      <path id="Trazado_263" data-name="Trazado 263" d="M668.163,675.721l6.4-6.668a1.377,1.377,0,0,1,2.232,1.553l-1.969,4.064a8.42,8.42,0,0,0,2.01.667,4.983,4.983,0,0,0,3.88-1.589c1.168-1.221,3.057-3.164,3.7-3.642.95-.71,2.174-1.809,3.532-1.918l.041,0a1.722,1.722,0,0,1,1.571,2.652l-2.673,4.135a16.761,16.761,0,0,1-8.129,6.569l-5.486,2.081a5.034,5.034,0,0,0-3.247,4.576l-.553,21.275-11.228-8.581,5.042-16.3a25.034,25.034,0,0,1,4.884-8.866" transform="translate(-495.942 -503.432)" fill="#fff"/>
      <path id="Trazado_264" data-name="Trazado 264" d="M667.792,708.357a.547.547,0,0,1-.332-.112l-11.228-8.581a.548.548,0,0,1-.19-.6l5.042-16.3a25.445,25.445,0,0,1,4.99-9.059l.021-.024,6.4-6.668a1.924,1.924,0,0,1,3.12,2.17l-1.719,3.55a5.529,5.529,0,0,0,1.3.4,4.411,4.411,0,0,0,3.449-1.421c1.361-1.422,3.119-3.219,3.765-3.7.129-.1.264-.2.4-.309a6.833,6.833,0,0,1,3.411-1.717,2.287,2.287,0,0,1,2.163,1.1,2.255,2.255,0,0,1-.047,2.389l-2.673,4.135a17.188,17.188,0,0,1-8.394,6.783l-5.487,2.081a4.471,4.471,0,0,0-2.893,4.079l-.554,21.274a.548.548,0,0,1-.548.533M657.2,699.025l10.073,7.7.525-20.2a5.562,5.562,0,0,1,3.6-5.073l5.486-2.081a16.1,16.1,0,0,0,7.863-6.355l2.673-4.135a1.174,1.174,0,0,0-1.071-1.808,6.019,6.019,0,0,0-2.867,1.494c-.144.112-.284.22-.418.32a50.922,50.922,0,0,0-3.629,3.583,5.5,5.5,0,0,1-4.311,1.757,8.5,8.5,0,0,1-2.2-.716.548.548,0,0,1-.263-.735l1.969-4.064a.829.829,0,0,0-1.345-.936l-6.385,6.656a24.365,24.365,0,0,0-4.767,8.66Z" transform="translate(-494.269 -501.771)"/>
      <path id="Trazado_265" data-name="Trazado 265" d="M623.817,779.734l28.008,22.195-12.484,12.943-23.758-19.791Z" transform="translate(-463.804 -587.482)" fill="#fff"/>
      <path id="Trazado_266" data-name="Trazado 266" d="M637.669,813.747a.543.543,0,0,1-.35-.127l-23.758-19.791a.547.547,0,0,1-.132-.68l8.234-15.347a.547.547,0,0,1,.822-.171l28.008,22.194a.552.552,0,0,1,.206.393.546.546,0,0,1-.152.417L638.063,813.58a.547.547,0,0,1-.394.167M614.6,793.274l23.024,19.179,11.711-12.142L622.318,778.9Z" transform="translate(-462.132 -585.81)"/>
      <path id="Trazado_267" data-name="Trazado 267" d="M291.13,788.072l-32.164-24.816s-3.52,5.354-9.287,5.932c-4.9.492-13.266-9.654-19.868-14.048a44.543,44.543,0,0,0-28.374-6.794s-.047,0-.136.013a50.14,50.14,0,0,0-5.565.811c-13.537,2.266-46.962,9.76-53.3,29.2-4.273,13.113.723,30.693,1.555,33.439a.33.33,0,0,0,.462.2l29.711-14.346-2.293-6.9a6.987,6.987,0,0,1,3.158-8.834l4.607-2.466c1.061,5.8,1.933,11.907.945,17.082-3.652,19.141-7.842,25.4-9.932,41.1,0,0,7.239-1.7,12.5-1.361l49.533,1.895a6.329,6.329,0,0,0,6.543-5.593c.518-4.6.529-12.746-1.372-27.038-.247-1.856-.4-4.8-.583-8.405,10.122,6.092,28.6,10.822,53.861-9.065" transform="translate(-106.033 -563.698)" fill="#fdfcff"/>
      <path id="Trazado_268" data-name="Trazado 268" d="M231.219,837.04c-.088,0-.176,0-.265-.005l-49.533-1.894c-5.13-.33-12.278,1.33-12.35,1.347a.547.547,0,0,1-.668-.606,119,119,0,0,1,4.7-20.362,192.175,192.175,0,0,0,5.233-20.766c.92-4.819.182-10.575-.812-16.142l-3.944,2.111a6.418,6.418,0,0,0-2.911,8.142l2.308,6.935a.548.548,0,0,1-.282.666l-29.711,14.346a.877.877,0,0,1-1.224-.533c-1.01-3.333-5.834-20.629-1.552-33.767,6.4-19.639,39.705-27.219,53.727-29.567a50.918,50.918,0,0,1,5.607-.816l.126-.015a.679.679,0,0,1,.073,0A44.762,44.762,0,0,1,228.407,753a74.772,74.772,0,0,1,7.554,6.194c4.445,3.962,9.038,8.076,11.958,7.766,5.431-.544,8.851-5.637,8.885-5.689a.547.547,0,0,1,.792-.132l32.163,24.816a.548.548,0,0,1,0,.864c-11.328,8.919-22.4,13.761-32.913,14.391a36.77,36.77,0,0,1-20.689-4.773c.167,3.261.312,5.724.528,7.349,1.593,11.976,2.055,21.117,1.373,27.172a6.9,6.9,0,0,1-6.843,6.083M179.95,834c.521,0,1.032.015,1.527.047L231,835.941a5.8,5.8,0,0,0,5.978-5.107c.462-4.1.6-12.1-1.37-26.9-.244-1.83-.4-4.657-.588-8.45a.547.547,0,0,1,.829-.5c10.719,6.452,28.533,10.155,52.687-8.594l-31.157-24.039c-1.04,1.37-4.361,5.2-9.347,5.7-3.393.345-7.961-3.729-12.8-8.038a74.228,74.228,0,0,0-7.429-6.1,43.706,43.706,0,0,0-28.025-6.7.352.352,0,0,1-.043,0l-.079.009a49.833,49.833,0,0,0-5.517.8c-13.843,2.318-46.67,9.76-52.885,28.828-4.085,12.536.354,29.061,1.485,32.867L171.79,795.69l-2.142-6.442a7.5,7.5,0,0,1,3.42-9.49l4.607-2.466a.547.547,0,0,1,.8.385c1.078,5.9,1.939,12.074.945,17.283a193.212,193.212,0,0,1-5.26,20.874,119.652,119.652,0,0,0-4.56,19.417A55.085,55.085,0,0,1,179.95,834" transform="translate(-104.328 -562.013)"/>
      <path id="Trazado_269" data-name="Trazado 269" d="M240.289,984.364l8.921,13.887,4-2.71a11.314,11.314,0,0,1,8.347-1.771s4.3.571,6.132,2.051c4.424,3.57.5,5.792-.345,6.24a8.8,8.8,0,0,1-5.275,1.1,13.872,13.872,0,0,0-7.088,1.756c-2.121,1.152-4.6,3.506-7.968,2.592a7.936,7.936,0,0,1-4.144-2.478l-11.525-14.372Z" transform="translate(-174.3 -741.658)" fill="#fff"/>
      <path id="Trazado_270" data-name="Trazado 270" d="M246.85,1006.594a6.273,6.273,0,0,1-1.659-.224,8.451,8.451,0,0,1-4.44-2.679l-11.513-14.356a.548.548,0,0,1,.112-.79l8.95-6.3a.547.547,0,0,1,.776.152l8.617,13.414,3.532-2.4a11.8,11.8,0,0,1,8.751-1.857c.157.02,4.447.6,6.379,2.164,1.623,1.31,2.383,2.627,2.258,3.914-.118,1.231-1.074,2.381-2.691,3.237a9.425,9.425,0,0,1-5.609,1.163,13.446,13.446,0,0,0-6.749,1.7c-.413.225-.847.5-1.306.792a10.184,10.184,0,0,1-5.409,2.072M230.458,989.1l11.16,13.917a7.51,7.51,0,0,0,3.86,2.292c2.455.665,4.44-.6,6.194-1.715.475-.3.924-.588,1.37-.83a14.234,14.234,0,0,1,7.427-1.817,8.333,8.333,0,0,0,4.942-1.046c.742-.393,2-1.223,2.114-2.374.087-.9-.538-1.893-1.856-2.957-1.7-1.368-5.818-1.929-5.86-1.934a10.717,10.717,0,0,0-7.968,1.682l-4,2.71a.552.552,0,0,1-.417.083.546.546,0,0,1-.351-.241l-8.612-13.406Z" transform="translate(-172.627 -739.985)"/>
      <path id="Trazado_271" data-name="Trazado 271" d="M196.141,953.771l3.675,6.783L178.1,977.877s-3.954-7.6-5.17-12.948Z" transform="translate(-130.289 -718.608)" fill="#fff"/>
      <path id="Trazado_272" data-name="Trazado 272" d="M176.423,976.75a.545.545,0,0,1-.486-.3c-.162-.313-4-7.727-5.218-13.079a.547.547,0,0,1,.3-.615L194.23,951.6a.546.546,0,0,1,.719.232l3.674,6.783a.548.548,0,0,1-.139.689l-21.72,17.323a.545.545,0,0,1-.341.119m-4.535-13.193a68.357,68.357,0,0,0,4.72,11.8l20.835-16.617-3.208-5.921Z" transform="translate(-128.616 -716.934)"/>
      <path id="Trazado_273" data-name="Trazado 273" d="M527.14,893.54a.548.548,0,0,1-.546-.51c-.1-1.4-.2-2.935-.314-4.523-.311-4.437-.663-9.466-.867-13.228a.548.548,0,1,1,1.094-.059c.2,3.753.554,8.777.865,13.211.112,1.589.219,3.122.315,4.525a.548.548,0,0,1-.509.584h-.038" transform="translate(-395.866 -659.034)"/>
      <path id="Trazado_274" data-name="Trazado 274" d="M373.3,684.182l-1.924,15.987,8.9,3.955s-13.163,8.946-30.5-.97l9.356-4,4.824-18.552Z" transform="translate(-263.537 -512.794)" fill="#fff"/>
      <path id="Trazado_275" data-name="Trazado 275" d="M364.6,706.671a33.437,33.437,0,0,1-16.761-4.714.548.548,0,0,1,.057-.979L357,697.087l4.757-18.292a.548.548,0,0,1,.726-.373L371.826,682a.547.547,0,0,1,.348.576L370.3,698.161l8.526,3.791a.548.548,0,0,1,.085.953,27.666,27.666,0,0,1-14.315,3.766m-15.244-5.125c13.866,7.43,24.923,2.656,28.054.973L369.485,699a.548.548,0,0,1-.322-.566l1.873-15.562-8.373-3.205-4.671,17.959a.548.548,0,0,1-.315.366Z" transform="translate(-261.865 -511.123)"/>
      <path id="Trazado_276" data-name="Trazado 276" d="M392.085,653.934s-3.571,1.347-4.512-1.755a2.022,2.022,0,0,1,2.137-2.907s-3.278-6.8,1.818-7.462a30.075,30.075,0,0,0,8.817-2.547s3.7,6.487,4.894,11.924c.717,3.279.521,6.177-1.955,7.04-6.778,2.362-11.2-4.292-11.2-4.292" transform="translate(-291.878 -481.645)" fill="#fff"/>
      <path id="Trazado_277" data-name="Trazado 277" d="M398.733,657.606c-4.542,0-7.664-3.581-8.534-4.707a4.71,4.71,0,0,1-3.164-.159,3.232,3.232,0,0,1-1.661-2.074,2.82,2.82,0,0,1,.263-2.674,2.606,2.606,0,0,1,1.6-.877c-.492-1.272-1.3-3.937-.316-5.759a3.543,3.543,0,0,1,2.864-1.762,29.811,29.811,0,0,0,8.641-2.492.548.548,0,0,1,.722.217c.153.268,3.76,6.622,4.953,12.079.927,4.235.15,6.817-2.31,7.674a9.233,9.233,0,0,1-3.056.535m-8.324-5.891a.549.549,0,0,1,.457.243c.172.257,4.275,6.269,10.563,4.079,1.851-.645,2.389-2.8,1.6-6.405a49.824,49.824,0,0,0-4.59-11.327,31.272,31.272,0,0,1-8.516,2.375,2.485,2.485,0,0,0-2.042,1.2c-.867,1.6.173,4.5.646,5.483a.548.548,0,0,1-.528.784,1.985,1.985,0,0,0-1.507.529,1.837,1.837,0,0,0-.071,1.673,2.156,2.156,0,0,0,1.093,1.408,3.984,3.984,0,0,0,2.7-.006.549.549,0,0,1,.191-.034" transform="translate(-290.202 -479.973)"/>
      <path id="Trazado_278" data-name="Trazado 278" d="M431.654,240.738a.545.545,0,0,1-.389-.163l-1.586-1.6a.547.547,0,1,1,.778-.77l1.586,1.6a.548.548,0,0,1-.389.932" transform="translate(-323.617 -179.348)" fill="#cebcff"/>
      <path id="Trazado_279" data-name="Trazado 279" d="M462.466,271.909a.547.547,0,0,1-.389-.163l-1.586-1.6a.547.547,0,0,1,.778-.77l1.586,1.6a.548.548,0,0,1-.389.932" transform="translate(-346.832 -202.833)" fill="#cebcff"/>
      <path id="Trazado_280" data-name="Trazado 280" d="M430.067,271.909a.548.548,0,0,1-.389-.932l1.586-1.6a.547.547,0,0,1,.778.77l-1.586,1.6a.546.546,0,0,1-.389.163" transform="translate(-323.617 -202.833)" fill="#cebcff"/>
      <path id="Trazado_281" data-name="Trazado 281" d="M460.88,240.737a.548.548,0,0,1-.389-.932l1.586-1.6a.547.547,0,0,1,.778.77l-1.586,1.6a.544.544,0,0,1-.389.162" transform="translate(-346.832 -179.347)" fill="#cebcff"/>
      <path id="Trazado_282" data-name="Trazado 282" d="M589.642,464.51h0a.547.547,0,0,1-.544-.551l.013-2.256a.547.547,0,0,1,.547-.544h0a.547.547,0,0,1,.544.551l-.013,2.256a.547.547,0,0,1-.547.544" transform="translate(-443.847 -347.455)" fill="#cebcff"/>
      <path id="Trazado_283" data-name="Trazado 283" d="M589.389,508.34h0a.547.547,0,0,1-.544-.551l.013-2.257a.547.547,0,0,1,.547-.544h0a.548.548,0,0,1,.544.551l-.013,2.257a.547.547,0,0,1-.547.544" transform="translate(-443.657 -380.478)" fill="#cebcff"/>
      <path id="Trazado_284" data-name="Trazado 284" d="M563.05,488.857a.547.547,0,0,1,0-1.095l2.257-.013h0a.548.548,0,0,1,0,1.1l-2.257.013Z" transform="translate(-423.812 -367.489)" fill="#cebcff"/>
      <path id="Trazado_285" data-name="Trazado 285" d="M606.881,488.6a.547.547,0,0,1,0-1.095l2.256-.013a.561.561,0,0,1,.551.544.548.548,0,0,1-.544.551l-2.257.013Z" transform="translate(-456.836 -367.299)" fill="#cebcff"/>
      <path id="Trazado_286" data-name="Trazado 286" d="M302.576,291.079a4.037,4.037,0,1,1,4.036-4.037,4.041,4.041,0,0,1-4.036,4.037m0-6.978a2.942,2.942,0,1,0,2.941,2.941,2.945,2.945,0,0,0-2.941-2.941" transform="translate(-224.931 -213.228)" fill="#cebcff"/>
    </g>
  </g>
</svg>
